<?xml version="1.0" encoding="UTF-8" standalone="no"?>
<!-- Created with Inkscape (http://www.inkscape.org/) -->

<svg
   width="512"
   height="512"
   viewBox="0 0 512 512"
   version="1.1"
   id="svg1"
   xml:space="preserve"
   inkscape:version="1.4.2 (ebf0e940d0, 2025-05-08)"
   sodipodi:docname="ai-history.svg"
   xmlns:inkscape="http://www.inkscape.org/namespaces/inkscape"
   xmlns:sodipodi="http://sodipodi.sourceforge.net/DTD/sodipodi-0.dtd"
   xmlns="http://www.w3.org/2000/svg"
   xmlns:svg="http://www.w3.org/2000/svg"><sodipodi:namedview
     id="namedview1"
     pagecolor="#ffffff"
     bordercolor="#000000"
     borderopacity="0.25"
     inkscape:showpageshadow="2"
     inkscape:pageopacity="0.0"
     inkscape:pagecheckerboard="0"
     inkscape:deskcolor="#d1d1d1"
     inkscape:document-units="px"
     inkscape:zoom="0.953125"
     inkscape:cx="256"
     inkscape:cy="256"
     inkscape:window-width="1366"
     inkscape:window-height="708"
     inkscape:window-x="0"
     inkscape:window-y="0"
     inkscape:window-maximized="1"
     inkscape:current-layer="layer1" /><defs
     id="defs1" /><g
     inkscape:label="Layer 1"
     inkscape:groupmode="layer"
     id="layer1"><path
       style="fill:#000000;fill-opacity:1;stroke-width:2.00972"
       d="m 234.86895,481.38364 c -19.99072,-2.36452 -29.68688,-15.58589 -23.06061,-31.44475 5.72468,-13.70112 7.86013,-14.09186 71.83583,-13.14433 18.10637,0.26815 22.91303,32.33798 6.14635,41.00833 -6.68058,3.45468 -38.46666,5.52703 -54.92157,3.58075 z m 95.41079,-19.29103 c -19.49485,-8.48462 -17.02932,-33.7096 4.21323,-43.1062 70.8562,-31.34306 114.09429,-119.02507 97.74819,-198.22242 C 403.38717,80.965185 230.74901,29.165815 129.87466,130.04018 l -12.27434,12.27432 8.27741,1.63694 c 21.08751,4.17024 27.62601,30.64675 10.2484,41.49926 -9.23959,5.7702 -77.648705,12.70889 -85.831575,8.70583 -17.891957,-8.75276 -24.571092,-93.31111 -8.286444,-104.906804 15.861094,-11.294099 36.29658,0.481713 36.29658,20.915614 0,9.29467 1.403526,8.91794 11.053443,-2.96683 C 139.25448,45.746524 236.44724,17.075756 316.97597,40.053787 495.32776,90.944659 539.53337,325.2965 391.78196,436.63054 c -29.11769,21.94084 -49.86099,30.52862 -61.50222,25.46207 z M 129.60592,442.70212 c -19.16815,-12.15608 -41.252648,-36.08936 -41.252648,-44.7061 0,-26.85659 22.850918,-31.67693 46.870958,-9.88732 8.22478,7.46107 18.64154,16.52458 23.14829,20.14114 25.75563,20.66808 -0.64483,52.28658 -28.7666,34.45228 z M 270.5222,323.60381 c -58.57961,-25.99552 -53.54696,-16.96479 -53.54696,-96.08592 0,-66.85958 3.25999,-78.01621 22.80804,-78.05572 20.34104,-0.0412 23.41072,9.20993 23.43859,70.63635 l 0.0231,50.94408 32.52541,14.06803 c 43.73588,18.9168 50.9044,26.05168 43.68531,43.48014 -7.58826,18.31966 -18.13216,17.55688 -68.93353,-4.98696 z M 51.919516,335.33656 c -10.862671,-5.90237 -22.922879,-57.65529 -16.856047,-72.33283 8.153286,-19.72529 35.882538,-19.45015 40.95116,0.40633 2.818054,11.03978 8.676461,42.38379 9.784099,52.34749 1.873838,16.85611 -17.880383,28.27221 -33.879212,19.57901 z"
       id="path13" /></g></svg>
