<?xml version="1.0" encoding="UTF-8" standalone="no"?>
<!-- Created with Inkscape (http://www.inkscape.org/) -->

<svg
   width="512"
   height="512"
   viewBox="0 0 135.46666 135.46667"
   version="1.1"
   id="svg1"
   xml:space="preserve"
   xmlns:inkscape="http://www.inkscape.org/namespaces/inkscape"
   xmlns:sodipodi="http://sodipodi.sourceforge.net/DTD/sodipodi-0.dtd"
   xmlns="http://www.w3.org/2000/svg"
   xmlns:svg="http://www.w3.org/2000/svg"><sodipodi:namedview
     id="namedview1"
     pagecolor="#ffffff"
     bordercolor="#000000"
     borderopacity="0.25"
     inkscape:showpageshadow="2"
     inkscape:pageopacity="0.0"
     inkscape:pagecheckerboard="0"
     inkscape:deskcolor="#d1d1d1"
     inkscape:document-units="mm"><inkscape:page
       x="0"
       y="0"
       width="135.46666"
       height="135.46667"
       id="page2"
       margin="0"
       bleed="0" /></sodipodi:namedview><defs
     id="defs1" /><g
     inkscape:groupmode="layer"
     id="layer3"
     inkscape:label="Layer 3"><path
       d="M 59.504058,130.74438 C 37.120136,128.13584 18.03298,112.30675 10.791564,90.346806 8.0170575,81.933001 7.9595189,81.173995 7.4076073,45.707623 L 6.8976286,12.935839 8.163355,10.871116 c 1.4211102,-2.3181752 4.59033,-4.2579533 7.023859,-4.2990531 2.554722,-0.043132 4.477373,1.0474236 15.4302,8.7522651 l 10.463595,7.360723 2.49947,-1.037991 c 4.173269,-1.733117 11.619798,-3.548323 17.621776,-4.295582 9.725526,-1.210868 21.013654,-0.09875 30.247434,2.980021 l 4.128854,1.376674 10.249177,-7.724282 c 5.63704,-4.2483452 10.94433,-8.0490853 11.79397,-8.4460876 3.36054,-1.5702378 7.68344,-0.3169219 10.1512,2.9431607 l 1.42378,1.8809229 0.52962,34.033195 c 0.48984,31.477596 0.46636,34.336877 -0.31204,38.077408 -2.56259,12.313495 -7.54633,21.84118 -16.10546,30.78965 -7.77688,8.13065 -16.648869,13.3372 -27.441665,16.10424 -4.760013,1.22038 -20.607627,2.04872 -26.363067,1.378 z m 18.070319,-9.87455 c 22.959703,-2.66003 40.687013,-20.936101 43.210913,-44.548497 0.29592,-2.768532 0.25329,-14.344463 -0.12023,-32.645128 l -0.57868,-28.355497 -8.3643,6.291185 c -11.862911,8.922668 -13.851723,10.262608 -15.267726,10.286352 -0.68996,0.01157 -3.381609,-0.730781 -5.981421,-1.649677 -7.594071,-2.68406 -13.599096,-3.664043 -21.707879,-3.542596 -8.42065,0.126973 -14.245749,1.186795 -20.975145,3.819342 -5.538305,2.166583 -7.909238,2.649292 -9.314121,1.896269 -0.548266,-0.293868 -5.727097,-3.854834 -11.508481,-7.913233 -5.781383,-4.058418 -10.634652,-7.376854 -10.785045,-7.374314 -0.4813,0.0082 0.571945,54.460709 1.149404,59.423236 0.765311,6.577017 2.189992,11.415071 5.101174,17.323012 6.657924,13.511596 18.58884,22.991746 33.282473,26.445846 2.068577,0.48626 8.989431,1.02108 14.282017,1.10365 1.330087,0.0208 4.739785,-0.23121 7.577089,-0.55995 z M 66.075309,93.04058 c -2.396658,-0.839145 -5.856077,-4.043057 -6.32295,-5.855975 -0.434916,-1.688782 0.812342,-3.687184 2.892245,-4.634052 1.047417,-0.476844 3.406462,-0.77109 6.616829,-0.825309 4.212454,-0.07114 5.32759,0.08652 7.163701,1.012452 2.247794,1.133608 2.803905,2.254549 2.278918,4.593555 -0.375115,1.671295 -2.565483,3.834421 -5.287694,5.221908 -2.734158,1.393585 -4.431201,1.50624 -7.341049,0.487421 z M 39.389945,81.138109 C 34.674697,78.52435 32.75821,72.10104 35.115382,66.811453 c 2.945744,-6.61039 11.648946,-6.876829 14.872617,-0.455319 2.761281,5.500481 1.045258,11.934419 -3.918778,14.692837 -1.334091,0.741345 -5.404693,0.795661 -6.679275,0.08919 z m 51.480038,-1.185636 c -0.938852,-0.515191 -2.376626,-2.017109 -3.195034,-3.337589 -1.270036,-2.049143 -1.495764,-2.898299 -1.540863,-5.796403 -0.04598,-2.954541 0.131515,-3.68235 1.366673,-5.603858 3.022286,-4.701707 8.396933,-5.801853 12.143256,-2.485625 4.805155,4.253514 4.835595,12.403243 0.06095,16.326263 -2.236827,1.837877 -6.358103,2.256396 -8.835007,0.897212 z"
       style="fill:#000000;stroke-width:1.86514"
       id="path1-2" /></g></svg>
