<?xml version="1.0" encoding="UTF-8" standalone="no"?>
<!-- Created with Inkscape (http://www.inkscape.org/) -->

<svg
   width="512"
   height="512"
   viewBox="0 0 512 512"
   version="1.1"
   id="svg1"
   xml:space="preserve"
   inkscape:version="1.4.2 (ebf0e940d0, 2025-05-08)"
   sodipodi:docname="clinics.svg"
   xmlns:inkscape="http://www.inkscape.org/namespaces/inkscape"
   xmlns:sodipodi="http://sodipodi.sourceforge.net/DTD/sodipodi-0.dtd"
   xmlns="http://www.w3.org/2000/svg"
   xmlns:svg="http://www.w3.org/2000/svg"><sodipodi:namedview
     id="namedview1"
     pagecolor="#ffffff"
     bordercolor="#000000"
     borderopacity="0.25"
     inkscape:showpageshadow="2"
     inkscape:pageopacity="0.0"
     inkscape:pagecheckerboard="0"
     inkscape:deskcolor="#d1d1d1"
     inkscape:document-units="px"
     inkscape:zoom="0.953125"
     inkscape:cx="256"
     inkscape:cy="256"
     inkscape:window-width="1366"
     inkscape:window-height="708"
     inkscape:window-x="0"
     inkscape:window-y="0"
     inkscape:window-maximized="1"
     inkscape:current-layer="layer1" /><defs
     id="defs1" /><g
     inkscape:label="Layer 1"
     inkscape:groupmode="layer"
     id="layer1"><g
       id="g13"
       transform="matrix(4.2961484,0,0,4.2961484,-822.28706,-778.90138)"
       style="fill:#000000"><path
         style="fill:#000000;fill-opacity:1"
         d="m 233.52001,293.56002 c 9.614,-0.0228 25.346,-0.0228 34.96,0 9.614,0.0228 1.748,0.0414 -17.48,0.0414 -19.228,0 -27.094,-0.0186 -17.48,-0.0414 z"
         id="path16" /><path
         style="fill:#000000;fill-opacity:1"
         d="m 233.60001,289.72002 c 9.57,-0.0228 25.23,-0.0228 34.8,0 9.57,0.0228 1.74,0.0414 -17.4,0.0414 -19.14,0 -26.97,-0.0187 -17.4,-0.0414 z"
         id="path15" /><path
         style="fill:#000000;fill-opacity:1"
         d="m 215.55801,264.32001 c 0,-13.64 0.0189,-19.24366 0.042,-12.45258 0.0231,6.79108 0.0231,17.95108 1e-5,24.8 -0.0231,6.84892 -0.042,1.29258 -0.042,-12.34742 z m 70.88,0 c 0,-13.64 0.0189,-19.24366 0.042,-12.45258 0.0231,6.79108 0.0231,17.95108 1e-5,24.8 -0.0231,6.84892 -0.042,1.29258 -0.042,-12.34742 z"
         id="path14" /><path
         style="fill:#000000;fill-opacity:1"
         d="m 214.95169,293.28898 c -1.4205,-0.50668 -2.58371,-1.7608 -2.97637,-3.20897 -0.1212,-0.44702 -0.1738,-8.1508 -0.17442,-25.54857 -8e-4,-22.43006 -0.0259,-24.93359 -0.25232,-25.16 -0.21483,-0.21483 -0.81954,-0.25143 -4.154,-0.25143 -5.779,0 -7.44813,-0.91656 -7.7146,-4.23625 -0.18466,-2.30039 0.24967,-2.84093 6.49969,-8.08915 2.14481,-1.80103 4.16081,-3.49894 4.48,-3.77312 0.31918,-0.27419 3.02834,-2.56772 6.02034,-5.09675 4.81876,-4.07312 8.81014,-7.45211 10,-8.4657 2.1195,-1.80552 5.71483,-4.84694 6.6424,-5.61903 0.63431,-0.528 3.90675,-3.3 7.27209,-6.16 8.7495,-7.4357 8.60094,-7.3373 10.81024,-7.15995 1.40751,0.11298 2.25945,0.60433 4.82219,2.78118 1.22945,1.04432 2.62636,2.22949 3.10422,2.63371 0.87921,0.7437 7.69269,6.51218 11.32713,9.58984 2.00083,1.69432 3.65886,3.09533 5.39174,4.55595 0.52249,0.44041 2.53399,2.14248 4.46999,3.78239 3.80575,3.2237 12.03158,10.18579 13.2,11.17207 0.396,0.33427 1.764,1.48863 3.04,2.56525 4.31566,3.64131 4.89956,4.22043 5.28527,5.24198 0.82231,2.17786 -0.0787,4.5978 -2.13655,5.73829 l -0.82872,0.45929 -4.18386,0.0496 c -3.74788,0.0444 -4.21035,0.0788 -4.43804,0.33043 -0.22959,0.25369 -0.25824,2.71736 -0.29614,25.47043 l -0.042,25.18957 -0.37582,0.76319 c -0.51878,1.05351 -1.5034,1.96863 -2.5324,2.35362 -1.11639,0.4177 -71.09723,0.50695 -72.2601,0.0922 z m 71.15689,-3.7004 c 0.13829,-0.13829 0.26866,-0.26429 0.28972,-0.28 0.0211,-0.0157 0.075,-11.44057 0.12,-25.38857 0.0915,-28.39243 -0.0277,-25.79678 1.24457,-27.11301 1.22143,-1.26367 1.78584,-1.39536 5.89968,-1.37648 4.17661,0.0192 4.59075,-0.029 4.83395,-0.56282 0.2705,-0.59368 0.1592,-0.72504 -2.59405,-3.06144 -1.42034,-1.20531 -3.48244,-2.95989 -4.58244,-3.89907 -1.66278,-1.41969 -6.48186,-5.49479 -9.44,-7.98263 -0.396,-0.33305 -2.916,-2.46917 -5.6,-4.74694 -2.684,-2.27778 -5.13947,-4.35656 -5.45661,-4.61951 -0.31713,-0.26296 -1.72113,-1.4491 -3.12,-2.63587 -1.39886,-1.18678 -2.68739,-2.27891 -2.86339,-2.42696 -0.176,-0.14805 -2.12,-1.79669 -4.32,-3.66363 -8.93257,-7.58029 -8.77313,-7.45013 -9.28354,-7.57823 -0.59734,-0.14993 -0.83646,0.0207 -5.06468,3.61367 -2.14048,1.8189 -4.8581,4.1229 -6.03914,5.12 -1.18105,0.99711 -3.12505,2.63821 -4.32001,3.6469 -1.19495,1.00869 -3.57663,3.02691 -5.29263,4.48494 -3.85472,3.27521 -7.72071,6.54649 -11.13119,9.41886 -0.79815,0.67222 -3.06317,2.59022 -5.03336,4.26222 -3.82725,3.24799 -4.57359,3.87871 -8.16716,6.90196 -4.21248,3.54395 -4.10531,3.73704 2.07558,3.7396 4.82219,0.002 5.7564,0.36267 6.83414,2.63844 l 0.37886,0.8 0.002,25.01052 c 0.002,25.26107 0.006,25.46673 0.54552,25.82703 0.40236,0.26866 69.81472,0.14092 70.08462,-0.12898 z m -35.71742,-3.07068 c -7.22232,-0.0554 -6.75115,0.28113 -6.75115,-4.82207 v -3.21582 h -3.21582 c -5.13534,0 -4.78418,0.54568 -4.78418,-7.43441 v -6.01029 l 0.54741,-0.59765 0.54742,-0.59765 3.44132,-0.0513 3.44132,-0.0513 0.0513,-3.44132 0.0513,-3.44132 0.59765,-0.54742 0.59765,-0.54741 h 6.06077 c 7.885,0 7.38393,-0.33004 7.38393,4.86348 v 3.11375 l 3.4,0.0514 c 4.97568,0.0752 4.6,-0.52483 4.6,7.34685 0,7.87571 0.34601,7.34453 -4.78418,7.34453 h -3.21582 v 3.21582 c 0,5.21284 0.53792,4.88733 -7.96885,4.82207 z m 4.12885,-6.93371 c 0,-4.95295 -0.10699,-4.84229 4.75242,-4.91556 l 3.40758,-0.0514 V 271.10862 267.6 l -3.24,-2.5e-4 c -4.95047,-3.8e-4 -4.91937,0.0307 -4.91975,-4.91975 l -2.5e-4,-3.24 h -3.52 -3.52 v 3.20514 c 0,5.0094 0.0548,4.95338 -4.84306,4.95426 l -3.32306,6e-4 0.0431,3.53283 0.0431,3.53282 3.2,-0.0166 c 4.87532,-0.0253 4.88,-0.0206 4.88,4.90845 V 282.8 h 3.52 3.52 z m -13.92,-26.92179 c -10.13741,-2.75973 -5.42085,-19.44262 6.66491,-23.57435 4.32465,-1.47846 7.80858,-0.66085 12.45983,2.92406 12.89498,9.93869 7.36194,26.11473 -6.53204,19.09666 l -2.20729,-1.11494 -2.27858,1.11307 c -3.48227,1.70106 -5.88127,2.16137 -8.10683,1.5555 z m 5.29394,-4.15428 c 0.47633,-0.23056 1.50704,-0.81738 2.29046,-1.30406 2.54423,-1.58052 3.35587,-1.53687 5.87256,0.31581 2.40291,1.76892 6.11228,2.06736 7.79486,0.62714 3.93566,-3.36878 -0.64941,-12.14285 -8.07792,-15.45808 -6.25874,-2.79317 -16.83435,6.91226 -14.84211,13.62088 0.72493,2.44109 4.19617,3.53714 6.96215,2.19831 z m -12.00669,-12.60537 c -3.10802,-0.59843 -5.66246,-3.96334 -5.87784,-7.74274 -0.40868,-7.17138 6.5613,-10.1349 10.5826,-4.49955 3.9056,5.47321 0.89021,13.31957 -4.70476,12.24229 z m 1.73816,-3.8952 c 1.02205,-0.52852 1.29183,-3.6795 0.45992,-5.37172 -1.60115,-3.25692 -4.36207,-2.74687 -4.35304,0.80418 0.008,3.10895 2.05938,5.51581 3.89312,4.56754 z m 30.72365,3.90857 c -5.14013,-0.85282 -6.40853,-8.79028 -2.11336,-13.2251 2.61663,-2.7017 6.37526,-2.60615 8.42193,0.21412 3.70161,5.10073 -0.59355,13.95919 -6.30857,13.01098 z m 1.8861,-3.99142 c 2.86268,-1.74545 2.62551,-8.25266 -0.26919,-7.38539 -2.95042,0.88397 -3.58972,7.65904 -0.72597,7.69369 0.264,0.003 0.71182,-0.13554 0.99516,-0.3083 z m -11.96789,-4.81035 c -7.32727,-1.20011 -6.06066,-15.28405 1.37348,-15.27232 6.56482,0.0104 8.13327,11.60963 1.99074,14.72229 -0.64416,0.32642 -1.02807,0.42974 -2.31149,0.62208 -0.176,0.0264 -0.64973,-0.006 -1.05273,-0.072 z m 1.78154,-3.9189 c 1.72726,-0.8932 2.31861,-4.92412 1.00252,-6.83357 -1.54569,-2.24257 -4.26162,0.33335 -4.00455,3.79813 0.19054,2.56815 1.44765,3.83924 3.00203,3.03544 z m -15.44881,3.4665 c -4.55391,-2.17166 -5.56957,-9.93332 -1.75941,-13.4454 2.76238,-2.54628 6.88539,-1.56971 8.72045,2.06552 3.27217,6.48214 -1.35816,14.05178 -6.96104,11.37988 z m 3.25011,-3.62135 c 1.00516,-0.84579 1.44107,-3.24955 0.90078,-4.96727 -1.1531,-3.666 -4.21231,-3.24085 -4.50477,0.62605 -0.24287,3.21141 1.8914,5.78227 3.60399,4.34122 z"
         id="path13" /></g></g></svg>
