<?xml version="1.0" encoding="UTF-8" standalone="no"?>
<!-- Created with Inkscape (http://www.inkscape.org/) -->

<svg
   width="512"
   height="512"
   viewBox="0 0 135.46666 135.46667"
   version="1.1"
   id="svg1"
   xml:space="preserve"
   inkscape:export-filename="bitmap.svg"
   inkscape:export-xdpi="96"
   inkscape:export-ydpi="96"
   xmlns:inkscape="http://www.inkscape.org/namespaces/inkscape"
   xmlns:sodipodi="http://sodipodi.sourceforge.net/DTD/sodipodi-0.dtd"
   xmlns="http://www.w3.org/2000/svg"
   xmlns:svg="http://www.w3.org/2000/svg"><sodipodi:namedview
     id="namedview1"
     pagecolor="#ffffff"
     bordercolor="#000000"
     borderopacity="0.25"
     inkscape:showpageshadow="2"
     inkscape:pageopacity="0.0"
     inkscape:pagecheckerboard="0"
     inkscape:deskcolor="#d1d1d1"
     inkscape:document-units="mm"><inkscape:page
       x="0"
       y="0"
       width="135.46666"
       height="135.46667"
       id="page2"
       margin="0"
       bleed="0" /></sodipodi:namedview><defs
     id="defs1" /><g
     inkscape:groupmode="layer"
     id="layer2"
     inkscape:label="Layer 2"><path
       d="m 61.69062,127.20978 c -3.203292,-0.4403 -6.144372,-1.25642 -9.878394,-2.74117 C 39.224009,119.46315 28.773066,106.83934 25.513795,92.702424 24.918946,90.122305 24.88536,90.073417 23.427008,89.66548 16.957839,87.855925 14.160961,86.334024 11.029668,82.919541 8.4955995,80.156283 6.2849836,75.79429 5.5987789,72.203276 4.8744317,68.412673 5.3571585,57.509905 6.4620794,52.704905 8.836985,42.377113 12.941395,34.376059 19.600721,27.092737 c 7.25164,-7.931141 15.63868,-12.788627 26.075964,-15.102293 2.833448,-0.6281 5.28312,-0.70598 22.205891,-0.70598 18.589959,0 19.110164,0.02077 22.949472,0.915834 19.743152,4.602803 34.455202,20.587577 38.654712,41.998679 0.95638,4.876101 1.16507,16.097101 0.35433,19.051993 -2.24212,8.171927 -8.0238,13.950758 -15.89004,15.882268 l -2.74042,0.672905 -0.79428,3.164944 c -1.07025,4.264611 -2.2096,7.248103 -4.19512,10.985373 -2.1469,4.04098 -3.52135,5.99825 -6.679635,9.51202 -5.93246,6.60014 -13.49734,11.16805 -21.571192,13.02537 -3.812275,0.87698 -12.370022,1.25331 -16.279783,0.71593 z m 14.40179,-8.04952 c 13.260423,-2.74082 24.13503,-13.93346 27.76336,-28.575316 l 0.94994,-3.833405 0.20066,-19.422443 0.20065,-19.422454 0.87006,-1.008398 c 1.31245,-1.521147 3.58576,-1.429726 4.84025,0.19465 l 0.92913,1.203065 v 16.814983 16.81498 l 1.1664,-0.262205 c 3.7168,-0.835502 7.04722,-3.536896 8.81462,-7.149769 1.65487,-3.382841 2.06348,-6.786757 1.54996,-12.911629 C 122.83968,55.18837 121.6282,50.296057 119.24446,44.912276 114.99379,35.311924 108.08406,27.823589 99.235775,23.228087 91.138195,19.022483 86.121952,18.358226 64.50208,18.628614 47.901367,18.836229 47.235807,18.910796 40.607027,21.305739 34.637322,23.462559 28.778519,27.550404 24.050966,32.85738 15.950445,41.950702 11.691254,54.185617 12.130073,67.101237 c 0.122757,3.613952 0.263839,4.33378 1.297601,6.621664 1.844583,4.082335 5.541155,7.179133 9.504074,7.962038 l 1.345837,0.26587 V 64.880098 47.809399 l 0.880906,-0.959792 c 1.20333,-1.311067 3.36156,-1.31859 4.751576,-0.01656 l 1.00696,0.943223 0.210558,19.878659 c 0.240265,22.682236 0.223391,22.538912 3.537422,30.045209 2.0535,4.651182 3.492414,6.889892 6.74584,10.495342 8.756355,9.70386 21.416774,13.70652 34.681563,10.96479 z M 64.114249,103.10922 c -3.509465,-1.33512 -6.099759,-4.394532 -6.376389,-7.531182 -0.136294,-1.54551 -0.01656,-2.01055 0.78559,-3.049112 1.543862,-1.99905 3.884817,-2.649228 9.538568,-2.649228 4.665564,0 4.92475,0.04345 6.998339,1.173061 2.518945,1.372235 3.22863,2.582129 2.870261,4.893249 -0.462624,2.98342 -3.709009,6.435002 -6.985101,7.426622 -1.853874,0.56115 -4.980812,0.44058 -6.831268,-0.26341 z M 45.736029,75.611966 c -2.793841,-0.917584 -4.59617,-3.851343 -4.582796,-7.459635 0.01424,-3.852683 2.25744,-7.270964 5.370745,-8.18435 2.798926,-0.821152 5.91363,0.941081 7.225678,4.088158 2.5198,6.043973 -2.547471,13.351091 -8.013627,11.555827 z m 41.220942,-0.01493 c -4.070852,-1.329438 -6.457057,-7.052391 -4.772302,-11.445623 0.655414,-1.709044 2.779339,-3.668381 4.534858,-4.18342 3.93533,-1.154546 8.266006,3.07268 8.257162,8.059913 -0.0068,3.483913 -2.126394,6.793467 -4.826708,7.534282 -1.794395,0.492294 -1.792374,0.492265 -3.19301,0.03488 z"
       style="fill:#000000;stroke-width:1.41584"
       id="path1-6" /></g></svg>
