<?xml version="1.0" encoding="UTF-8" standalone="no"?>
<!-- Created with Inkscape (http://www.inkscape.org/) -->

<svg
   width="512"
   height="512"
   viewBox="0 0 512 512"
   version="1.1"
   id="svg1"
   xml:space="preserve"
   inkscape:version="1.4.2 (ebf0e940d0, 2025-05-08)"
   sodipodi:docname="pet-health.svg"
   xmlns:inkscape="http://www.inkscape.org/namespaces/inkscape"
   xmlns:sodipodi="http://sodipodi.sourceforge.net/DTD/sodipodi-0.dtd"
   xmlns="http://www.w3.org/2000/svg"
   xmlns:svg="http://www.w3.org/2000/svg"><sodipodi:namedview
     id="namedview1"
     pagecolor="#ffffff"
     bordercolor="#000000"
     borderopacity="0.25"
     inkscape:showpageshadow="2"
     inkscape:pageopacity="0.0"
     inkscape:pagecheckerboard="0"
     inkscape:deskcolor="#d1d1d1"
     inkscape:document-units="px"
     inkscape:zoom="0.953125"
     inkscape:cx="256"
     inkscape:cy="256"
     inkscape:window-width="1366"
     inkscape:window-height="708"
     inkscape:window-x="0"
     inkscape:window-y="0"
     inkscape:window-maximized="1"
     inkscape:current-layer="layer1" /><defs
     id="defs1" /><g
     inkscape:label="Layer 1"
     inkscape:groupmode="layer"
     id="layer1"><g
       id="g7"
       transform="matrix(1.1786938,0,0,1.1786938,-49.457555,-60.154058)"
       style="fill:#000000"><path
         style="display:inline;fill:#000000;fill-opacity:1"
         d="m 408.8608,287.45901 c 0,-4.125 0.17651,-5.8125 0.39226,-3.75 0.21574,2.0625 0.21574,5.4375 0,7.5 -0.21575,2.0625 -0.39226,0.375 -0.39226,-3.75 z m -79.08621,-38.68932 c 0.9625,-0.25153 2.5375,-0.25153 3.5,0 0.9625,0.25153 0.175,0.45732 -1.75,0.45732 -1.925,0 -2.7125,-0.20579 -1.75,-0.45732 z m 50.82895,-132.89401 c 0.048,-1.16494 0.28494,-1.4019 0.60416,-0.60417 0.28887,0.72188 0.25335,1.58438 -0.0789,1.91667 -0.3323,0.33229 -0.56864,-0.25833 -0.52522,-1.3125 z"
         id="path10" /><path
         style="display:inline;fill:#000000;fill-opacity:1"
         d="m 288.77459,254.76969 c 0.9625,-0.25153 2.5375,-0.25153 3.5,0 0.9625,0.25153 0.175,0.45732 -1.75,0.45732 -1.925,0 -2.7125,-0.20579 -1.75,-0.45732 z m 83,0 c 0.9625,-0.25153 2.5375,-0.25153 3.5,0 0.9625,0.25153 0.175,0.45732 -1.75,0.45732 -1.925,0 -2.7125,-0.20579 -1.75,-0.45732 z m -36.4375,-5.99379 c 0.72187,-0.28887 1.58437,-0.25334 1.91667,0.0789 0.33229,0.33229 -0.25834,0.56864 -1.3125,0.52522 -1.16495,-0.048 -1.4019,-0.28494 -0.60417,-0.60417 z m 52.05994,-55.06689 c -1.24387,-1.58605 -1.2085,-1.62142 0.37756,-0.37755 1.66575,1.30637 2.19548,2.12755 1.37244,2.12755 -0.20765,0 -0.99515,-0.7875 -1.75,-1.75 z m -104.71455,-75.25 c 0,-1.375 0.22698,-1.9375 0.50439,-1.25 0.27741,0.6875 0.27741,1.8125 0,2.5 -0.27741,0.6875 -0.50439,0.125 -0.50439,-1.25 z"
         id="path9" /><path
         style="display:inline;fill:#000000;fill-opacity:1"
         d="m 310.14813,446.92036 c -0.34295,-0.89371 -0.53812,-8.22562 -0.43372,-16.29313 l 0.18982,-14.66822 0.56923,16 c 0.31308,8.8 0.50825,16.13191 0.43372,16.29313 -0.0745,0.16122 -0.41611,-0.43808 -0.75905,-1.33178 z m 22.37646,0.57001 20.5,-0.53136 0.53423,-18.5 0.53424,-18.5 0.21576,17.66822 c 0.11868,9.71751 -0.0574,18.38001 -0.39122,19.25 -0.53021,1.38171 -3.21803,1.55413 -21.25,1.36314 l -20.64301,-0.21864 z M 139.68248,434.45901 c 0,-1.375 0.22698,-1.9375 0.50439,-1.25 0.27741,0.6875 0.27741,1.8125 0,2.5 -0.27741,0.6875 -0.50439,0.125 -0.50439,-1.25 z m 3.30099,-12.06653 c -0.36253,-0.58659 -0.44468,-1.281 -0.18255,-1.54312 0.26212,-0.26213 0.74306,0.21781 1.06875,1.06653 0.67618,1.7621 0.0998,2.07206 -0.8862,0.47659 z m -6.37993,-1.5168 c 0.048,-1.16494 0.28494,-1.4019 0.60416,-0.60417 0.28887,0.72188 0.25335,1.58438 -0.0789,1.91667 -0.3323,0.33229 -0.56864,-0.25833 -0.52522,-1.3125 z m 8.07894,-10.41667 c 0,-1.375 0.22698,-1.9375 0.50439,-1.25 0.27741,0.6875 0.27741,1.8125 0,2.5 -0.27741,0.6875 -0.50439,0.125 -0.50439,-1.25 z m 125.50878,-2.66666 c -0.92483,-0.92483 -0.84327,-43.33334 0.0833,-43.33334 0.4125,0 0.75,9.9 0.75,22 0,12.1 -0.0375,22 -0.0833,22 -0.0458,0 -0.38334,-0.3 -0.75,-0.66666 z m 10.58333,-0.0779 c 4.8125,-0.18332 12.6875,-0.18332 17.5,0 4.8125,0.18331 0.875,0.33329 -8.75,0.33329 -9.625,0 -13.5625,-0.14998 -8.75,-0.33329 z m 87.5,5.8e-4 c 4.5375,-0.1853 11.9625,-0.1853 16.5,0 4.5375,0.18529 0.825,0.33689 -8.25,0.33689 -9.075,0 -12.7875,-0.1516 -8.25,-0.33689 z m 25.23933,-21.25602 -0.48933,-21.5 h -17.75066 c -9.76287,0 -17.75037,-0.31786 -17.75,-0.70637 3.6e-4,-0.38851 8.05843,-0.83851 17.90682,-1 9.84839,-0.16149 17.72059,0.005 17.49377,0.37096 -0.22681,0.36553 0.0497,0.81862 0.61443,1.00687 0.67174,0.22391 0.92956,7.77492 0.74557,21.83541 l -0.28127,21.49313 z m -259.91038,18.41667 c 0.048,-1.16494 0.28494,-1.4019 0.60416,-0.60417 0.28887,0.72188 0.25335,1.58438 -0.0789,1.91667 -0.3323,0.33229 -0.56864,-0.25833 -0.52522,-1.3125 z m 12,0 c 0.048,-1.16494 0.28494,-1.4019 0.60416,-0.60417 0.28887,0.72188 0.25335,1.58438 -0.0789,1.91667 -0.3323,0.33229 -0.56864,-0.25833 -0.52522,-1.3125 z m 2.37993,-6.4832 c -0.36253,-0.58659 -0.44468,-1.281 -0.18255,-1.54312 0.26212,-0.26213 0.74306,0.21781 1.06875,1.06653 0.67618,1.7621 0.0998,2.07206 -0.8862,0.47659 z m -16.37993,-2.5168 c 0.048,-1.16494 0.28494,-1.4019 0.60416,-0.60417 0.28887,0.72188 0.25335,1.58438 -0.0789,1.91667 -0.3323,0.33229 -0.56864,-0.25833 -0.52522,-1.3125 z m 17.26613,-2.95979 c -0.32569,-0.84872 -0.36872,-1.76657 -0.0956,-2.03967 0.27309,-0.27309 0.73656,0.42132 1.02992,1.54313 0.62315,2.38293 -0.0692,2.75089 -0.9343,0.49654 z m -18.61387,-1.53703 c 0.35361,-1.35221 0.8069,-1.8055 1.05655,-1.05655 0.24048,0.72144 -0.0382,1.78715 -0.61931,2.36826 -0.74207,0.74206 -0.87221,0.35163 -0.43724,-1.31171 z m 20.42668,-8.91985 c 0,-1.375 0.22698,-1.9375 0.50439,-1.25 0.27741,0.6875 0.27741,1.8125 0,2.5 -0.27741,0.6875 -0.50439,0.125 -0.50439,-1.25 z m -22.07894,-1.58333 c 0.048,-1.16494 0.28494,-1.4019 0.60416,-0.60417 0.28887,0.72188 0.25335,1.58438 -0.0789,1.91667 -0.3323,0.33229 -0.56864,-0.25833 -0.52522,-1.3125 z m -0.92106,-5.41667 c 0,-1.375 0.22698,-1.9375 0.50439,-1.25 0.27741,0.6875 0.27741,1.8125 0,2.5 -0.27741,0.6875 -0.50439,0.125 -0.50439,-1.25 z m 25.20847,-1.48766 c -0.31398,-0.81822 -0.13395,-3.18072 0.40007,-5.25 0.96949,-3.75669 0.97077,-3.75447 0.85226,1.47985 -0.1256,5.54752 -0.33193,6.16867 -1.25233,3.77015 z m -26.28741,-5.09567 c 0.048,-1.16494 0.28494,-1.4019 0.60416,-0.60417 0.28887,0.72188 0.25335,1.58438 -0.0789,1.91667 -0.3323,0.33229 -0.56864,-0.25833 -0.52522,-1.3125 z m -1,-4 c 0.048,-1.16494 0.28494,-1.4019 0.60416,-0.60417 0.28887,0.72188 0.25335,1.58438 -0.0789,1.91667 -0.3323,0.33229 -0.56864,-0.25833 -0.52522,-1.3125 z m 17,-2 c 0.048,-1.16494 0.28494,-1.4019 0.60416,-0.60417 0.28887,0.72188 0.25335,1.58438 -0.0789,1.91667 -0.3323,0.33229 -0.56864,-0.25833 -0.52522,-1.3125 z m 12,0 c 0.048,-1.16494 0.28494,-1.4019 0.60416,-0.60417 0.28887,0.72188 0.25335,1.58438 -0.0789,1.91667 -0.3323,0.33229 -0.56864,-0.25833 -0.52522,-1.3125 z m -30.34774,-1.49682 c 0.35361,-1.35221 0.8069,-1.8055 1.05655,-1.05655 0.24048,0.72144 -0.0382,1.78715 -0.61931,2.36826 -0.74207,0.74206 -0.87221,0.35163 -0.43724,-1.31171 z m 104.78156,1.10082 c -0.59282,-0.95921 1.07166,-5.02067 2.0576,-5.02067 0.275,0 0.0134,0.9093 -0.58143,2.02067 -0.59479,1.11137 -0.80906,2.46137 -0.47617,3 0.3329,0.53863 0.38026,0.97933 0.10526,0.97933 -0.275,0 -0.77236,-0.4407 -1.10526,-0.97933 z m -92.43382,-1.604 c 0.048,-1.16494 0.28494,-1.4019 0.60416,-0.60417 0.28887,0.72188 0.25335,1.58438 -0.0789,1.91667 -0.3323,0.33229 -0.56864,-0.25833 -0.52522,-1.3125 z m 173.33613,-16.41667 c 0,-10.175 0.1485,-14.3375 0.32999,-9.25 0.18149,5.0875 0.18149,13.4125 0,18.5 -0.18149,5.0875 -0.32999,0.925 -0.32999,-9.25 z m -166.59058,13.67418 c -0.37205,-1.82482 -0.23268,-2.48235 0.39346,-1.85622 0.53328,0.53328 0.79255,1.8049 0.57615,2.82583 -0.29142,1.37481 -0.54288,1.12335 -0.96961,-0.96961 z m -20,-2.34835 c 0.42673,-2.09296 0.67819,-2.34442 0.96961,-0.96961 0.2164,1.02093 -0.0429,2.29255 -0.57615,2.82583 -0.62614,0.62613 -0.76551,-0.0314 -0.39346,-1.85622 z m 109.20613,-1.82583 c 0,-0.55 0.43621,-1.675 0.96937,-2.5 0.53316,-0.825 0.96937,-1.05 0.96937,-0.5 0,0.55 -0.43621,1.675 -0.96937,2.5 -0.53316,0.825 -0.96937,1.05 -0.96937,0.5 z m -110.14947,-3.71858 c 0.46036,-2.77692 0.60121,-2.91776 0.91608,-0.91608 0.20465,1.30093 -0.0402,2.77757 -0.54399,3.28142 -0.55478,0.55478 -0.70153,-0.37812 -0.37209,-2.36534 z m 35.49313,-0.24843 c -0.30962,-0.80685 -0.36997,-2.04435 -0.1341,-2.75 0.23587,-0.70564 0.66592,-0.0455 0.95566,1.46701 0.56574,2.95323 0.099,3.68204 -0.82156,1.28299 z m 67.19,0.17389 c 0.37553,-0.98622 0.93469,-1.54122 1.24258,-1.23334 0.30789,0.30789 6.4e-4,1.1148 -0.68278,1.79313 -0.98762,0.98027 -1.10248,0.86541 -0.5598,-0.55979 z m -79.48534,-1.29021 c 0.048,-1.16494 0.28494,-1.4019 0.60416,-0.60417 0.28887,0.72188 0.25335,1.58438 -0.0789,1.91667 -0.3323,0.33229 -0.56864,-0.25833 -0.52522,-1.3125 z m -12.98129,-6.39688 c -0.60371,-2.81503 -1.04514,-6.10858 -0.98095,-7.31901 0.0642,-1.21042 0.7357,0.91522 1.49224,4.72365 0.75654,3.80844 1.19797,7.10199 0.98095,7.31901 -0.21702,0.21701 -0.88852,-1.90863 -1.49224,-4.72365 z m -11.01871,2.39688 c 0.048,-1.16494 0.28494,-1.4019 0.60416,-0.60417 0.28887,0.72188 0.25335,1.58438 -0.0789,1.91667 -0.3323,0.33229 -0.56864,-0.25833 -0.52522,-1.3125 z m 25.07894,-0.41667 c 0,-1.375 0.22698,-1.9375 0.50439,-1.25 0.27741,0.6875 0.27741,1.8125 0,2.5 -0.27741,0.6875 -0.50439,0.125 -0.50439,-1.25 z m 91.28826,-1.08713 c -0.36954,-0.59792 -0.26752,-1.49149 0.2267,-1.98571 0.53144,-0.53144 0.89858,-0.0873 0.89858,1.08713 0,2.27223 -0.18501,2.41997 -1.12528,0.89858 z M 119.66077,335.7908 c -0.0749,-1.19251 -0.39516,-2.99251 -0.71169,-4 -0.54481,-1.73408 -0.51463,-1.73691 0.56579,-0.053 0.62771,0.97832 0.94796,2.77832 0.71168,4 -0.42917,2.21904 -0.42973,2.2191 -0.56578,0.053 z m 40.94277,-1.91512 c 0.048,-1.16494 0.28494,-1.4019 0.60416,-0.60417 0.28887,0.72188 0.25335,1.58438 -0.0789,1.91667 -0.3323,0.33229 -0.56864,-0.25833 -0.52522,-1.3125 z m -30.59515,-5.51257 c -0.3806,-2.25274 -0.27102,-4.51688 0.24352,-5.03141 0.58069,-0.58069 0.75886,0.26812 0.46975,2.23794 -0.28558,1.94577 -0.0828,2.93679 0.52413,2.56169 0.59265,-0.36628 0.80043,0.37931 0.51777,1.85795 -0.6501,3.40076 -0.95335,3.11981 -1.75517,-1.62617 z m 19.67409,2.0959 c 0,-1.375 0.22698,-1.9375 0.50439,-1.25 0.27741,0.6875 0.27741,1.8125 0,2.5 -0.27741,0.6875 -0.50439,0.125 -0.50439,-1.25 z m 1,-5 c 0,-1.375 0.22698,-1.9375 0.50439,-1.25 0.27741,0.6875 0.27741,1.8125 0,2.5 -0.27741,0.6875 -0.50439,0.125 -0.50439,-1.25 z m 12,-1 c 0,-1.375 0.22698,-1.9375 0.50439,-1.25 0.27741,0.6875 0.27741,1.8125 0,2.5 -0.27741,0.6875 -0.50439,0.125 -0.50439,-1.25 z m 147.84049,-0.25 c 8.9e-4,-0.4125 9.56412,-0.66058 21.25162,-0.5513 21.50016,0.20104 19.01647,0.57096 -7.00162,1.04283 -7.83839,0.14216 -14.25089,-0.079 -14.25,-0.49153 z m -158.91943,-4.33333 c 0.048,-1.16494 0.28494,-1.4019 0.60416,-0.60417 0.28887,0.72188 0.25335,1.58438 -0.0789,1.91667 -0.3323,0.33229 -0.56864,-0.25833 -0.52522,-1.3125 z m 12,0 c 0.048,-1.16494 0.28494,-1.4019 0.60416,-0.60417 0.28887,0.72188 0.25335,1.58438 -0.0789,1.91667 -0.3323,0.33229 -0.56864,-0.25833 -0.52522,-1.3125 z m 55,-2 c 0.048,-1.16494 0.28494,-1.4019 0.60416,-0.60417 0.28887,0.72188 0.25335,1.58438 -0.0789,1.91667 -0.3323,0.33229 -0.56864,-0.25833 -0.52522,-1.3125 z m 11.40534,-1.48817 c -0.37103,-1.68933 -0.40679,-3.33933 -0.0795,-3.66667 0.32734,-0.32734 0.59516,0.4064 0.59516,1.63053 0,1.22412 0.40803,1.9735 0.90674,1.66528 0.49871,-0.30822 0.67122,0.34023 0.38337,1.44098 -0.70904,2.71139 -1.01509,2.53003 -1.80582,-1.07012 z m -114.40534,-1.51183 c 0.048,-1.16494 0.28494,-1.4019 0.60416,-0.60417 0.28887,0.72188 0.25335,1.58438 -0.0789,1.91667 -0.3323,0.33229 -0.56864,-0.25833 -0.52522,-1.3125 z m 49,0 c 0.048,-1.16494 0.28494,-1.4019 0.60416,-0.60417 0.28887,0.72188 0.25335,1.58438 -0.0789,1.91667 -0.3323,0.33229 -0.56864,-0.25833 -0.52522,-1.3125 z m -37.60287,-1.49203 c -0.36228,-1.14144 -0.39261,-2.34144 -0.0674,-2.66666 0.32522,-0.32522 0.59131,0.18525 0.59131,1.13438 0,0.94912 0.44485,1.45075 0.98855,1.11472 0.56686,-0.35033 0.7345,0.0511 0.39301,0.94099 -0.78681,2.05038 -1.11741,1.95956 -1.90548,-0.52343 z m 25.18437,0.63289 c -0.37462,-0.97624 -0.22986,-1.40944 0.351,-1.05045 0.5524,0.34141 1.04863,-0.62837 1.12473,-2.19806 0.11219,-2.31402 0.21189,-2.4176 0.56578,-0.58777 0.23628,1.22168 0.017,2.95844 -0.48719,3.85946 -0.84687,1.51327 -0.96541,1.51151 -1.55432,-0.0232 z m 13.71384,-2.02454 c -0.30962,-0.80685 -0.36997,-2.04435 -0.1341,-2.75 0.23587,-0.70564 0.66592,-0.0455 0.95566,1.46701 0.56574,2.95323 0.099,3.68204 -0.82156,1.28299 z m -51.29534,-2.11632 c 0.048,-1.16494 0.28494,-1.4019 0.60416,-0.60417 0.28887,0.72188 0.25335,1.58438 -0.0789,1.91667 -0.3323,0.33229 -0.56864,-0.25833 -0.52522,-1.3125 z m 125.92105,-1.35765 c 0,-0.51754 0.44485,-1.21591 0.98855,-1.55194 0.56686,-0.35033 0.7345,0.0511 0.39301,0.94099 -0.66479,1.73241 -1.38156,2.04938 -1.38156,0.61095 z m -73.54112,-1.12555 c -0.36253,-0.58659 -0.44468,-1.281 -0.18255,-1.54312 0.26212,-0.26213 0.74306,0.21781 1.06875,1.06653 0.67618,1.7621 0.0998,2.07206 -0.8862,0.47659 z m -41.30099,-1.93347 c 0,-1.375 0.22698,-1.9375 0.50439,-1.25 0.27741,0.6875 0.27741,1.8125 0,2.5 -0.27741,0.6875 -0.50439,0.125 -0.50439,-1.25 z m 29.55975,-1.5 c 0.37299,-2.2 0.70161,-5.41952 0.73026,-7.1545 0.0287,-1.73498 0.45006,-2.90856 0.93645,-2.60796 0.48639,0.30061 0.68031,-0.84359 0.43094,-2.54267 -0.25874,-1.76295 -0.0537,-2.84224 0.47749,-2.51392 1.14847,0.7098 0.19187,8.4273 -1.78293,14.38392 l -1.47038,4.43513 z m -41.52269,0 c 0.0204,-1.65 0.2445,-2.20393 0.49804,-1.23096 0.25354,0.97296 0.23687,2.32296 -0.037,3 -0.27393,0.67703 -0.48137,-0.11904 -0.46099,-1.76904 z m 113.80505,1.05902 c 0,-0.79254 0.40803,-1.69316 0.90674,-2.00138 0.49871,-0.30822 0.67122,0.34023 0.38337,1.44098 -0.61061,2.33499 -1.29011,2.63015 -1.29011,0.5604 z m 15.07087,-0.059 c 0,-0.55 0.64311,-2.125 1.42913,-3.5 0.78602,-1.375 1.42913,-2.05 1.42913,-1.5 0,0.55 -0.64311,2.125 -1.42913,3.5 -0.78602,1.375 -1.42913,2.05 -1.42913,1.5 z m -28.50658,-2.79312 c 0.37553,-0.98622 0.93469,-1.54122 1.24258,-1.23334 0.30789,0.30789 6.4e-4,1.1148 -0.68278,1.79313 -0.98762,0.98027 -1.10248,0.86541 -0.5598,-0.55979 z m -90.14428,-4.28157 c -0.36884,-1.96608 -0.24009,-4.00522 0.2861,-4.53142 0.60897,-0.60896 0.78742,0.1968 0.49096,2.21674 -0.30005,2.04439 -0.0954,2.94455 0.57532,2.53004 0.64289,-0.39732 0.84091,0.12208 0.51772,1.35795 -0.73786,2.82157 -1.10329,2.51413 -1.8701,-1.57331 z m -11.34106,0.99136 c 0.048,-1.16494 0.28494,-1.4019 0.60416,-0.60417 0.28887,0.72188 0.25335,1.58438 -0.0789,1.91667 -0.3323,0.33229 -0.56864,-0.25833 -0.52522,-1.3125 z m 145.92105,-0.35765 c 0,-0.51754 0.44485,-1.21591 0.98855,-1.55194 0.56686,-0.35033 0.7345,0.0511 0.39301,0.94099 -0.66479,1.73241 -1.38156,2.04938 -1.38156,0.61095 z m -32.84211,-2.05902 c 0,-1.375 0.22698,-1.9375 0.50439,-1.25 0.27741,0.6875 0.27741,1.8125 0,2.5 -0.27741,0.6875 -0.50439,0.125 -0.50439,-1.25 z m 20.27068,0 c 0,-1.29523 0.3381,-1.63333 0.98572,-0.98571 0.64761,0.64762 0.64761,1.32381 0,1.97143 -0.64762,0.64762 -0.98572,0.30952 -0.98572,-0.98572 z m -77.27068,-1 c 0,-1.375 0.22698,-1.9375 0.50439,-1.25 0.27741,0.6875 0.27741,1.8125 0,2.5 -0.27741,0.6875 -0.50439,0.125 -0.50439,-1.25 z m -57.07894,-0.58333 c 0.048,-1.16494 0.28494,-1.4019 0.60416,-0.60417 0.28887,0.72188 0.25335,1.58438 -0.0789,1.91667 -0.3323,0.33229 -0.56864,-0.25833 -0.52522,-1.3125 z m -25.742744,-7.41667 c 0,-4.125 0.176518,-5.8125 0.392262,-3.75 0.215744,2.0625 0.215744,5.4375 0,7.5 -0.215744,2.0625 -0.392262,0.375 -0.392262,-3.75 z m 6.913794,6.26102 c 3.1625,-0.19845 8.3375,-0.19845 11.5,0 3.1625,0.19845 0.575,0.36082 -5.75,0.36082 -6.325,0 -8.9125,-0.16237 -5.75,-0.36082 z m 206.5,-0.0106 c 19.9375,-0.15144 52.5625,-0.15144 72.5,0 19.9375,0.15144 3.625,0.27534 -36.25,0.27534 -39.875,0 -56.1875,-0.1239 -36.25,-0.27534 z m -74.75,-1.69138 c 0,-0.79254 0.40803,-1.69316 0.90674,-2.00138 0.49871,-0.30822 0.67122,0.34023 0.38337,1.44098 -0.61061,2.33499 -1.29011,2.63015 -1.29011,0.5604 z m -54.92105,-1.14235 c 0.048,-1.16494 0.28494,-1.4019 0.60416,-0.60417 0.28887,0.72188 0.25335,1.58438 -0.0789,1.91667 -0.3323,0.33229 -0.56864,-0.25833 -0.52522,-1.3125 z m 1.29534,-2.88368 c -0.30962,-0.80685 -0.36997,-2.04435 -0.1341,-2.75 0.23587,-0.70564 0.66592,-0.0455 0.95566,1.46701 0.56574,2.95323 0.099,3.68204 -0.82156,1.28299 z m -12.2164,-1.53299 c 0,-1.375 0.22698,-1.9375 0.50439,-1.25 0.27741,0.6875 0.27741,1.8125 0,2.5 -0.27741,0.6875 -0.50439,0.125 -0.50439,-1.25 z m -37,-1 c 0,-1.375 0.22698,-1.9375 0.50439,-1.25 0.27741,0.6875 0.27741,1.8125 0,2.5 -0.27741,0.6875 -0.50439,0.125 -0.50439,-1.25 z m 129.84211,0 c 0.5887,-1.1 1.29537,-2 1.57037,-2 0.275,0 0.0183,0.9 -0.57037,2 -0.5887,1.1 -1.29537,2 -1.57037,2 -0.275,0 -0.0183,-0.9 0.57037,-2 z m -29,-2.44098 c 0,-0.79254 0.40803,-1.69316 0.90674,-2.00138 0.49871,-0.30822 0.67122,0.34023 0.38337,1.44098 -0.61061,2.33499 -1.29011,2.63015 -1.29011,0.5604 z m -50.84211,-1.55902 c 0,-1.375 0.22698,-1.9375 0.50439,-1.25 0.27741,0.6875 0.27741,1.8125 0,2.5 -0.27741,0.6875 -0.50439,0.125 -0.50439,-1.25 z m -84.158669,-0.25 c 4.28e-4,-0.4125 7.650779,-0.75 17.000779,-0.75 9.35,0 16.99924,0.3375 16.99832,0.75 -9.3e-4,0.4125 -7.65128,0.75 -17.00078,0.75 -9.349505,0 -16.998747,-0.3375 -16.998319,-0.75 z m 207.250779,-0.49963 c 20.7625,-0.15093 54.7375,-0.15093 75.5,0 20.7625,0.15093 3.775,0.27442 -37.75,0.27442 -41.525,0 -58.5125,-0.12349 -37.75,-0.27442 z m -122.17105,-3.8337 c 0.048,-1.16494 0.28494,-1.4019 0.60416,-0.60417 0.28887,0.72188 0.25335,1.58438 -0.0789,1.91667 -0.3323,0.33229 -0.56864,-0.25833 -0.52522,-1.3125 z m 46.99248,-5.98809 c -0.68728,-3.07106 -1.05673,-5.77661 -0.82102,-6.01232 0.23572,-0.23572 0.99089,2.08411 1.67816,5.15517 0.68727,3.07106 1.05673,5.77661 0.82102,6.01232 -0.23572,0.23571 -0.99089,-2.08411 -1.67816,-5.15517 z m -45.99248,1.98809 c 0.048,-1.16494 0.28494,-1.4019 0.60416,-0.60417 0.28887,0.72188 0.25335,1.58438 -0.0789,1.91667 -0.3323,0.33229 -0.56864,-0.25833 -0.52522,-1.3125 z m -12.32297,-1.24178 c -0.3132,-1.19771 -0.16143,-1.92547 0.33728,-1.61725 0.49871,0.30822 0.95894,-0.47866 1.02274,-1.74862 0.0686,-1.36579 0.28806,-1.6708 0.53719,-0.74665 0.23165,0.85929 0.0277,2.62611 -0.45328,3.92626 -0.87357,2.36148 -0.87504,2.36167 -1.44393,0.18626 z m 46.32297,-1.75822 c 0.048,-1.16494 0.28494,-1.4019 0.60416,-0.60417 0.28887,0.72188 0.25335,1.58438 -0.0789,1.91667 -0.3323,0.33229 -0.56864,-0.25833 -0.52522,-1.3125 z M 174.89888,268.992 c -0.30962,-0.80685 -0.36997,-2.04435 -0.1341,-2.75 0.23587,-0.70564 0.66592,-0.0455 0.95566,1.46701 0.56574,2.95323 0.099,3.68204 -0.82156,1.28299 z m 31.70466,-3.11632 c 0.048,-1.16494 0.28494,-1.4019 0.60416,-0.60417 0.28887,0.72188 0.25335,1.58438 -0.0789,1.91667 -0.3323,0.33229 -0.56864,-0.25833 -0.52522,-1.3125 z m -42.884,-2.91667 c 0.0204,-1.65 0.2445,-2.20393 0.49804,-1.23096 0.25354,0.97296 0.23687,2.32296 -0.037,3 -0.27393,0.67703 -0.48137,-0.11904 -0.46099,-1.76904 z m 41.92758,-1 c -0.0824,-1.1 -0.38139,-3.125 -0.66439,-4.5 l -0.51456,-2.5 1.07114,2.45316 c 0.58913,1.34924 0.8881,3.37424 0.66439,4.5 -0.39626,1.99406 -0.41061,1.99527 -0.55658,0.0468 z m -27.96464,-9.5 c 0,-1.375 0.22698,-1.9375 0.50439,-1.25 0.27741,0.6875 0.27741,1.8125 0,2.5 -0.27741,0.6875 -0.50439,0.125 -0.50439,-1.25 z m 26,0 c 0,-1.375 0.22698,-1.9375 0.50439,-1.25 0.27741,0.6875 0.27741,1.8125 0,2.5 -0.27741,0.6875 -0.50439,0.125 -0.50439,-1.25 z m 11.92106,0.41667 c 0.048,-1.16494 0.28494,-1.4019 0.60416,-0.60417 0.28887,0.72188 0.25335,1.58438 -0.0789,1.91667 -0.3323,0.33229 -0.56864,-0.25833 -0.52522,-1.3125 z m 81.92105,0.63408 -3.5,-0.68597 4.68749,-0.78656 c 2.57812,-0.4326 5.27812,-0.5502 6,-0.26133 0.72188,0.28887 0.0485,0.56075 -1.49651,0.60417 -1.60262,0.045 -2.54359,0.50842 -2.19098,1.07894 0.33992,0.55 0.47898,0.94077 0.30902,0.86836 -0.16996,-0.0724 -1.88402,-0.44032 -3.80902,-0.81761 z m 82.5,-0.0507 c -1.63041,-0.70061 -1.68751,-0.87241 -0.30902,-0.92971 0.93004,-0.0387 1.9691,0.37971 2.30902,0.92971 0.71066,1.14988 0.67591,1.14988 -2,0 z m -100.73155,-1.16844 c 0.5811,-0.58111 1.64682,-0.8598 2.36826,-0.61932 0.74895,0.24965 0.29565,0.70294 -1.05655,1.05655 -1.66335,0.43498 -2.05378,0.30483 -1.31171,-0.43723 z m 5.50058,0.47545 c 0.97297,-0.25354 2.32297,-0.23686 3,0.0371 0.67703,0.27392 -0.11903,0.48137 -1.76903,0.46099 -1.65,-0.0204 -2.20394,-0.2445 -1.23097,-0.49805 z m 73.49942,-0.47545 c 0.5811,-0.58111 1.64682,-0.8598 2.36826,-0.61932 0.74895,0.24965 0.29565,0.70294 -1.05655,1.05655 -1.66335,0.43498 -2.05378,0.30483 -1.31171,-0.43723 z m 5.98155,0.50616 c 0.6875,-0.27741 1.8125,-0.27741 2.5,0 0.6875,0.27742 0.125,0.50439 -1.25,0.50439 -1.375,0 -1.9375,-0.22697 -1.25,-0.50439 z M 166.40575,248.6776 c -0.32944,-1.98722 -0.18269,-2.92012 0.37209,-2.36534 0.50384,0.50385 0.74864,1.98049 0.54399,3.28142 -0.31487,2.00168 -0.45572,1.86084 -0.91608,-0.91608 z m 108.55997,1.22625 c -1.83031,-1.46638 -1.7984,-1.48719 0.55887,-0.36455 3.06103,1.45781 3.62834,1.91971 2.3578,1.91971 -0.53655,0 -1.84905,-0.69982 -2.91667,-1.55516 z m 32.37137,0.87205 c 0.72187,-0.28887 1.58437,-0.25334 1.91667,0.0789 0.33229,0.33229 -0.25834,0.56864 -1.3125,0.52522 -1.16495,-0.048 -1.4019,-0.28494 -0.60417,-0.60417 z m -92.73355,-1.90022 c 0.048,-1.16494 0.28494,-1.4019 0.60416,-0.60417 0.28887,0.72188 0.25335,1.58438 -0.0789,1.91667 -0.3323,0.33229 -0.56864,-0.25833 -0.52522,-1.3125 z m 96.73355,0.90022 c 0.72187,-0.28887 1.58437,-0.25334 1.91667,0.0789 0.33229,0.33229 -0.25834,0.56864 -1.3125,0.52522 -1.16495,-0.048 -1.4019,-0.28494 -0.60417,-0.60417 z m 5.6875,-0.31689 c -1.63041,-0.70061 -1.68751,-0.87241 -0.30902,-0.92971 0.93004,-0.0387 1.9691,0.37971 2.30902,0.92971 0.71066,1.14988 0.67591,1.14988 -2,0 z m 28.48198,-0.36859 c 0.48361,-0.49117 2.52001,-0.43414 4.68661,0.13127 l 3.83141,0.99986 -4.68661,-0.13127 c -2.6402,-0.0739 -4.31319,-0.51054 -3.83141,-0.99986 z m -166.90303,-1.21474 c 0.048,-1.16494 0.28494,-1.4019 0.60416,-0.60417 0.28887,0.72188 0.25335,1.58438 -0.0789,1.91667 -0.3323,0.33229 -0.56864,-0.25833 -0.52522,-1.3125 z m 23.36549,-1.86111 c -0.37648,-2.00685 -0.45952,-3.87381 -0.18452,-4.14881 0.275,-0.275 0.80804,1.14196 1.18452,3.14881 0.37649,2.00685 0.45953,3.87381 0.18453,4.14881 -0.275,0.275 -0.80804,-1.14196 -1.18453,-3.14881 z m 68.16865,1.26147 c 0.28881,-0.46731 0.94401,-0.59075 1.45601,-0.27432 1.30838,0.80862 1.16106,1.12396 -0.52511,1.12396 -0.80081,0 -1.21971,-0.38234 -0.9309,-0.84964 z m 51.19941,0.49986 c 0.72187,-0.28887 1.58437,-0.25334 1.91667,0.0789 0.33229,0.33229 -0.25834,0.56864 -1.3125,0.52522 -1.16495,-0.048 -1.4019,-0.28494 -0.60417,-0.60417 z m 19,0 c 0.72187,-0.28887 1.58437,-0.25334 1.91667,0.0789 0.33229,0.33229 -0.25834,0.56864 -1.3125,0.52522 -1.16495,-0.048 -1.4019,-0.28494 -0.60417,-0.60417 z m 52.75753,-0.20358 c -0.30141,-0.48768 0.23454,-1.50018 1.19098,-2.25 1.53617,-1.2043 1.59421,-1.17762 0.49767,0.2287 -0.68273,0.87561 -0.94523,1.88811 -0.58334,2.25 0.3619,0.3619 0.38455,0.65799 0.0503,0.65799 -0.3342,0 -0.85425,-0.39901 -1.15565,-0.88669 z m -179.57003,-3.05429 c 0,-1.06754 0.38499,-2.17892 0.85554,-2.46974 0.47055,-0.29081 0.64309,0.58263 0.38343,1.94099 -0.56402,2.95046 -1.23897,3.23851 -1.23897,0.52875 z m 183.57003,-0.94571 c -0.30141,-0.48768 0.23454,-1.50018 1.19098,-2.25 1.53617,-1.2043 1.59421,-1.17762 0.49767,0.2287 -0.68273,0.87561 -0.94523,1.88811 -0.58334,2.25 0.3619,0.3619 0.38455,0.65799 0.0503,0.65799 -0.3342,0 -0.85425,-0.39901 -1.15565,-0.88669 z m -131.69759,-1.86331 c -1.24387,-1.58605 -1.2085,-1.62142 0.37756,-0.37755 0.9625,0.75484 1.75,1.54234 1.75,1.75 0,0.82303 -0.82119,0.2933 -2.12756,-1.37245 z m -84.52736,-1.79312 c -0.32569,-0.84872 -0.36872,-1.76657 -0.0956,-2.03967 0.27309,-0.27309 0.73656,0.42132 1.02992,1.54313 0.62315,2.38293 -0.0692,2.75089 -0.9343,0.49654 z m -11.73478,-3.95688 c 0.82247,-3.67692 1.39483,-4.47511 1.37439,-1.91666 -0.008,1.05416 -0.47209,2.59166 -1.03038,3.41666 -0.74131,1.09546 -0.83408,0.69092 -0.34401,-1.5 z m 231.48396,1 c -0.035,-0.55 0.31685,-1.60023 0.78189,-2.33384 0.6767,-1.06753 0.97085,-1.00724 1.47323,0.30194 0.34524,0.89968 0.2213,1.3846 -0.27542,1.07761 -0.49673,-0.30699 -1.13105,0.007 -1.4096,0.69806 -0.27856,0.69093 -0.5351,0.80623 -0.5701,0.25623 z m 2.28003,-4.96701 c -0.30962,-0.80685 -0.36997,-2.04435 -0.1341,-2.75 0.23587,-0.70564 0.66592,-0.0455 0.95566,1.46701 0.56574,2.95323 0.099,3.68204 -0.82156,1.28299 z m -192.37429,-0.97397 c 0,-0.79254 0.40803,-1.69316 0.90674,-2.00138 0.49871,-0.30822 0.67122,0.34023 0.38337,1.44098 -0.61061,2.33499 -1.29011,2.63015 -1.29011,0.5604 z m 49.47132,-3.90172 c -0.35818,-2.38849 -0.23195,-6.32599 0.2805,-8.75 0.83503,-3.94987 0.92783,-3.49916 0.89411,4.3427 -0.0207,4.8125 -0.14692,8.75 -0.28051,8.75 -0.13358,0 -0.53593,-1.95421 -0.8941,-4.3427 z m -62.74011,0.26255 c 0.35361,-1.35221 0.8069,-1.8055 1.05655,-1.05655 0.24048,0.72144 -0.0382,1.78715 -0.61931,2.36826 -0.74207,0.74206 -0.87221,0.35163 -0.43724,-1.31171 z m -25.51322,-1.41985 c 0.0102,-1.1 0.36216,-3.35 0.78201,-5 0.68569,-2.69471 0.76527,-2.74559 0.782,-0.5 0.0103,1.375 -0.34165,3.625 -0.782,5 -0.62738,1.959 -0.79661,2.0672 -0.78201,0.5 z m 232.03419,-2 c 0.0111,-2.2 0.21589,-2.98225 0.45508,-1.73834 0.23919,1.24392 0.23011,3.04392 -0.0202,4 -0.25029,0.95609 -0.446,-0.0617 -0.4349,-2.26166 z m -195.09429,-1.5 c 0,-1.375 0.22698,-1.9375 0.50439,-1.25 0.27741,0.6875 0.27741,1.8125 0,2.5 -0.27741,0.6875 -0.50439,0.125 -0.50439,-1.25 z m -23.81281,-1.54312 c -0.32569,-0.84872 -0.36872,-1.76657 -0.0956,-2.03967 0.27309,-0.27309 0.73656,0.42132 1.02992,1.54313 0.62315,2.38293 -0.0692,2.75089 -0.9343,0.49654 z m -11.26613,-6.04021 c 0.048,-1.16494 0.28494,-1.4019 0.60416,-0.60417 0.28887,0.72188 0.25335,1.58438 -0.0789,1.91667 -0.3323,0.33229 -0.56864,-0.25833 -0.52522,-1.3125 z m 87.99192,-1.91667 c 0,-0.55 0.64311,-2.125 1.42913,-3.5 0.78602,-1.375 1.42913,-2.05 1.42913,-1.5 0,0.55 -0.64311,2.125 -1.42913,3.5 -0.78602,1.375 -1.42913,2.05 -1.42913,1.5 z m 139.55267,-1.03865 c -0.96498,-2.5147 -0.68031,-3.16356 0.49853,-1.13634 0.58369,1.00375 0.8506,2.03566 0.59313,2.29313 -0.25747,0.25746 -0.74872,-0.26309 -1.09166,-1.15679 z m -226.77429,-1.68108 c -0.34366,-1.66802 -0.17755,-2.48316 0.42955,-2.10795 0.60694,0.3751 0.80971,-0.61592 0.52413,-2.56169 -0.30533,-2.08034 -0.12696,-2.83466 0.51782,-2.18987 0.63558,0.63558 0.6484,2.50422 0.0362,5.28142 -0.87219,3.95676 -0.99184,4.08199 -1.50771,1.57809 z m 12.30864,0.21973 c 0,-1.375 0.22698,-1.9375 0.50439,-1.25 0.27741,0.6875 0.27741,1.8125 0,2.5 -0.27741,0.6875 -0.50439,0.125 -0.50439,-1.25 z m 6.84211,-0.88196 c 0,-0.55 0.45,-1.27812 1,-1.61804 0.55,-0.33991 1,-0.16803 1,0.38197 0,0.55 -0.45,1.27812 -1,1.61803 -0.55,0.33992 -1,0.16804 -1,-0.38196 z m 10.55556,-5.67359 c -0.37649,-2.00685 -0.48453,-3.84881 -0.24008,-4.09326 0.24444,-0.24444 0.75248,1.19752 1.12896,3.20437 0.37649,2.00685 0.48453,3.84881 0.24008,4.09326 -0.24444,0.24444 -0.75248,-1.19752 -1.12896,-3.20437 z m 63.94444,-1.44445 c 2.14824,-2.2 4.1309,-4 4.4059,-4 0.275,0 -1.25766,1.8 -3.4059,4 -2.14824,2.2 -4.1309,4 -4.4059,4 -0.275,0 1.25766,-1.8 3.4059,-4 z m 126.44617,-0.75 -3.44617,-3.75 3.75,3.44617 c 2.0625,1.89539 3.75,3.58289 3.75,3.75 0,0.76362 -0.84622,0.0443 -4.05383,-3.44617 z m -217.28992,-2.75 c 0.33499,-2.2 0.77437,-4.1875 0.97641,-4.41666 0.75747,-0.85918 0.19039,4.49696 -0.67936,6.41666 -0.63152,1.3939 -0.72154,0.7878 -0.29705,-2 z m 96.34375,-0.44098 c 0,-0.51754 0.44485,-1.21591 0.98855,-1.55194 0.56686,-0.35033 0.7345,0.0511 0.39301,0.94099 -0.66479,1.73241 -1.38156,2.04938 -1.38156,0.61095 z m 113.60509,-2.94932 c -2.00923,-2.09719 -2.42978,-3.10001 -1.53258,-3.65451 0.7376,-0.45586 0.98194,-0.3523 0.60558,0.25666 -0.66543,1.07668 2.62393,4.6528 3.48639,3.79034 0.2762,-0.2762 0.50219,0.17281 0.50219,0.99781 0,1.91005 0.17765,1.99072 -3.06158,-1.3903 z m -184.60509,0.44932 c 0,-0.79254 0.40803,-1.69316 0.90674,-2.00138 0.49871,-0.30822 0.67122,0.34023 0.38337,1.44098 -0.61061,2.33499 -1.29011,2.63015 -1.29011,0.5604 z m 74.86888,-1.90102 c 0.61257,-0.73811 0.78017,-1.75061 0.37244,-2.25 -0.40772,-0.4994 -0.33272,-0.5744 0.16667,-0.16667 0.4994,0.40773 1.6244,0.19634 2.5,-0.46974 0.87561,-0.66608 0.50107,0.0128 -0.8323,1.50868 -2.4341,2.73071 -4.29267,3.89103 -2.20681,1.37773 z m -98.78993,-3.24133 c 0.048,-1.16494 0.28494,-1.4019 0.60416,-0.60417 0.28887,0.72188 0.25335,1.58438 -0.0789,1.91667 -0.3323,0.33229 -0.56864,-0.25833 -0.52522,-1.3125 z m 201.79349,-3.16667 c -1.24387,-1.58605 -1.2085,-1.62142 0.37756,-0.37755 0.9625,0.75484 1.75,1.54234 1.75,1.75 0,0.82303 -0.82119,0.2933 -2.12756,-1.37245 z m -97.87244,0.37245 c 0,-0.20766 0.7875,-0.99516 1.75,-1.75 1.58606,-1.24387 1.62143,-1.2085 0.37755,0.37755 -1.30636,1.66575 -2.12755,2.19548 -2.12755,1.37245 z m -103.29011,-2.62383 c -0.28786,-1.10075 -0.1665,-1.78082 0.26968,-1.51124 0.91254,0.56398 1.98677,-2.8641 2.00677,-6.40404 0.008,-1.32917 0.27577,-2.15455 0.59613,-1.83419 0.82201,0.822 -0.64846,11.75085 -1.58106,11.75085 -0.42248,0 -1.00367,-0.90062 -1.29152,-2.00138 z m 80.79011,1.00138 c -1.63041,-0.70061 -1.68751,-0.87241 -0.30902,-0.92971 0.93004,-0.0387 1.9691,0.37971 2.30902,0.92971 0.71066,1.14988 0.67591,1.14988 -2,0 z m 142.26845,-0.16844 c 0.5811,-0.58111 1.64682,-0.8598 2.36826,-0.61932 0.74895,0.24965 0.29565,0.70294 -1.05655,1.05655 -1.66335,0.43498 -2.05378,0.30483 -1.31171,-0.43723 z M 250.33709,185.7759 c 0.72187,-0.28887 1.58437,-0.25334 1.91667,0.0789 0.33229,0.33229 -0.25834,0.56864 -1.3125,0.52522 -1.16495,-0.048 -1.4019,-0.28494 -0.60417,-0.60417 z m 162,0 c 0.72187,-0.28887 1.58437,-0.25334 1.91667,0.0789 0.33229,0.33229 -0.25834,0.56864 -1.3125,0.52522 -1.16495,-0.048 -1.4019,-0.28494 -0.60417,-0.60417 z m -149.8125,-0.77205 c 0,-0.7716 2.97626,-1.39226 3.3987,-0.70875 0.25451,0.41181 -0.40608,0.81419 -1.46798,0.89418 -1.0619,0.08 -1.93072,-0.003 -1.93072,-0.18543 z m 136.50708,-0.53338 c -0.35034,-0.56686 0.0511,-0.73451 0.94098,-0.39301 1.73242,0.66479 2.04939,1.38155 0.61096,1.38155 -0.51754,0 -1.21592,-0.44484 -1.55194,-0.98854 z m 16.99292,0.3532 c 0.55,-0.48408 2.57336,-2.22667 4.49637,-3.87241 l 3.49636,-2.99225 -2.49636,2.84183 c -1.37301,1.563 -3.39637,3.30558 -4.49637,3.8724 -1.1,0.56683 -1.55,0.63452 -1,0.15043 z m -216.5,-1.80564 c 0,-0.79254 0.40803,-1.69316 0.90674,-2.00138 0.49871,-0.30822 0.67122,0.34023 0.38337,1.44098 -0.61061,2.33499 -1.29011,2.63015 -1.29011,0.5604 z m 43.80928,-1.30902 c -2.91148,-3.12157 -5.21132,-7.18129 -4.48161,-7.911 0.26935,-0.26934 0.79551,0.47376 1.16927,1.65135 0.37375,1.17759 2.03645,3.6865 3.69489,5.57536 3.58806,4.08657 3.28925,4.62107 -0.38255,0.68429 z m 150.89083,-1.19455 c -1.36272,-1.6195 -2.82487,-2.632 -3.24922,-2.25 -0.42435,0.38201 -0.4236,0.0928 0.002,-0.64258 0.42526,-0.73542 1.06665,-0.96042 1.42531,-0.5 0.35866,0.46043 1.73631,2.07463 3.06144,3.58713 1.32514,1.5125 2.1459,2.75 1.82392,2.75 -0.32198,0 -1.70038,-1.32504 -3.0631,-2.94455 z m -125.20011,-0.0555 c 0.99549,-1.1 2.03497,-2 2.30997,-2 0.275,0 -0.31448,0.9 -1.30997,2 -0.99549,1.1 -2.03498,2 -2.30998,2 -0.275,0 0.31449,-0.9 1.30998,-2 z m -70.42105,-1.58333 c 0.048,-1.16494 0.28494,-1.4019 0.60416,-0.60417 0.28887,0.72188 0.25335,1.58438 -0.0789,1.91667 -0.3323,0.33229 -0.56864,-0.25833 -0.52522,-1.3125 z m 73.95168,-2.91667 c 0,-0.55 0.43621,-1.675 0.96937,-2.5 0.53316,-0.825 0.96937,-1.05 0.96937,-0.5 0,0.55 -0.43621,1.675 -0.96937,2.5 -0.53316,0.825 -0.96937,1.05 -0.96937,0.5 z m 98.59549,-1.94785 c -1.01452,-1.54836 -1.23141,-2.67806 -0.59023,-3.07433 0.55752,-0.34456 0.90691,-0.25553 0.77643,0.19786 -0.13047,0.45338 0.32421,1.83682 1.01041,3.07432 1.67169,3.01475 0.81562,2.8732 -1.19661,-0.19785 z m -188.46823,-1.55215 c 0,-1.375 0.22698,-1.9375 0.50439,-1.25 0.27741,0.6875 0.27741,1.8125 0,2.5 -0.27741,0.6875 -0.50439,0.125 -0.50439,-1.25 z m 109.71099,0.658 c 0.61257,-0.73811 0.89267,-1.56311 0.62244,-1.83334 -0.27022,-0.27023 0.18555,-0.49132 1.01284,-0.49132 1.28251,0 1.25967,0.27014 -0.15499,1.83333 -1.9005,2.10003 -3.16323,2.51914 -1.48029,0.49133 z M 237.60354,171.15 c -0.0434,-0.99496 -0.48698,-1.55684 -0.98569,-1.24862 -0.49871,0.30822 -0.65048,-0.41954 -0.33728,-1.61725 l 0.56947,-2.17764 0.86583,2.34058 c 0.47621,1.28732 0.66352,2.82914 0.41623,3.42626 -0.24729,0.59713 -0.48514,0.27163 -0.52856,-0.72333 z m -41.07895,-1.13197 c 0,-0.79254 0.40803,-1.69316 0.90674,-2.00138 0.49871,-0.30822 0.67122,0.34023 0.38337,1.44098 -0.61061,2.33499 -1.29011,2.63015 -1.29011,0.5604 z m 230.38404,-1.0006 c -0.30425,-0.79287 -0.37694,-2.25537 -0.16154,-3.25 0.24456,-1.12921 0.58685,-0.58779 0.91138,1.44158 0.5446,3.40552 0.19062,4.25922 -0.74984,1.80842 z m -150.63286,-8.55842 c 0.29013,-5.225 0.6898,-9.6875 0.88816,-9.91666 0.70029,-0.80904 0.23422,11.47051 -0.58513,15.41666 -0.55149,2.65607 -0.65331,0.80816 -0.30303,-5.5 z m 20.74882,7 c 0.99549,-1.1 2.03497,-2 2.30997,-2 0.275,0 -0.31448,0.9 -1.30997,2 -0.99549,1.1 -2.03498,2 -2.30998,2 -0.275,0 0.31449,-0.9 1.30998,-2 z M 183.2558,166.53917 c -0.43497,-1.66334 -0.30483,-2.05377 0.43724,-1.31171 0.5811,0.58111 0.85979,1.64682 0.61931,2.36826 -0.24965,0.74895 -0.70294,0.29566 -1.05655,-1.05655 z m 182.14123,0.16984 c -1.24387,-1.58605 -1.2085,-1.62142 0.37756,-0.37755 0.9625,0.75484 1.75,1.54234 1.75,1.75 0,0.82303 -0.82119,0.2933 -2.12756,-1.37245 z m -63.37244,-3.25 c 0.99549,-1.1 2.03497,-2 2.30997,-2 0.275,0 -0.31448,0.9 -1.30997,2 -0.99549,1.1 -2.03498,2 -2.30998,2 -0.275,0 0.31449,-0.9 1.30998,-2 z m 58,-0.62479 c -2.58648,-2.20097 -2.6554,-2.37349 -0.5,-1.25158 1.375,0.7157 2.7625,1.23068 3.08333,1.14438 0.32084,-0.0863 0.58334,0.49311 0.58334,1.28755 0,0.79444 -0.0375,1.42826 -0.0833,1.40848 -0.0458,-0.0198 -1.43333,-1.18475 -3.08333,-2.58883 z m 26.83621,-5.37521 c 0,-4.125 0.17651,-5.8125 0.39226,-3.75 0.21574,2.0625 0.21574,5.4375 0,7.5 -0.21575,2.0625 -0.39226,0.375 -0.39226,-3.75 z m -192.17832,4 c 0,-1.375 0.22698,-1.9375 0.50439,-1.25 0.27741,0.6875 0.27741,1.8125 0,2.5 -0.27741,0.6875 -0.50439,0.125 -0.50439,-1.25 z m 40,0 c 0,-1.375 0.22698,-1.9375 0.50439,-1.25 0.27741,0.6875 0.27741,1.8125 0,2.5 -0.27741,0.6875 -0.50439,0.125 -0.50439,-1.25 z m 194,0 c 0,-1.375 0.22698,-1.9375 0.50439,-1.25 0.27741,0.6875 0.27741,1.8125 0,2.5 -0.27741,0.6875 -0.50439,0.125 -0.50439,-1.25 z m -191.90571,-4.5 c 0.0111,-2.2 0.21589,-2.98225 0.45508,-1.73834 0.23919,1.24392 0.23011,3.04392 -0.0202,4 -0.25029,0.95609 -0.446,-0.0617 -0.4349,-2.26166 z m 76.40427,-0.25 c -0.25387,-0.4125 0.95707,-0.82586 2.69098,-0.91859 2.55573,-0.13668 2.77394,-0.008 1.15257,0.67971 -2.60564,1.1052 -3.28442,1.14739 -3.84355,0.23888 z m 35.34355,0.35699 c 0,-0.21615 0.69837,-0.661 1.55194,-0.98854 0.88992,-0.3415 1.29132,-0.17385 0.94098,0.39301 -0.58726,0.9502 -2.49292,1.40545 -2.49292,0.59553 z m -161.80505,-3.10699 c 0.0204,-1.65 0.2445,-2.20393 0.49804,-1.23096 0.25354,0.97296 0.23687,2.32296 -0.037,3 -0.27393,0.67703 -0.48137,-0.11904 -0.46099,-1.76904 z m 133.61755,0.81689 c 0.72187,-0.28887 1.58437,-0.25334 1.91667,0.0789 0.33229,0.33229 -0.25834,0.56864 -1.3125,0.52522 -1.16495,-0.048 -1.4019,-0.28494 -0.60417,-0.60417 z m 12.1875,-0.34935 c -7.32509,-0.65019 -7.26326,-0.6634 2.651,-0.56662 5.58306,0.0545 9.944,0.43658 9.69099,0.84908 -0.25301,0.4125 -1.44597,0.66748 -2.65101,0.56663 -1.20504,-0.10086 -5.56598,-0.48295 -9.69098,-0.84909 z m -139.92105,-1.55087 c 0.048,-1.16494 0.28494,-1.4019 0.60416,-0.60417 0.28887,0.72188 0.25335,1.58438 -0.0789,1.91667 -0.3323,0.33229 -0.56864,-0.25833 -0.52522,-1.3125 z m 45.00665,-1.91667 c 0.10413,-1.89422 1.77076,-5.08384 1.8288,-3.5 0.0302,0.825 -0.38124,2.175 -0.9144,3 -0.53316,0.825 -0.94464,1.05 -0.9144,0.5 z m 187.9144,-0.44098 c 0,-0.51754 0.44485,-1.21591 0.98855,-1.55194 0.56686,-0.35033 0.7345,0.0511 0.39301,0.94099 -0.66479,1.73241 -1.38156,2.04938 -1.38156,0.61095 z m -237.92105,-2.64235 c 0.048,-1.16494 0.28494,-1.4019 0.60416,-0.60417 0.28887,0.72188 0.25335,1.58438 -0.0789,1.91667 -0.3323,0.33229 -0.56864,-0.25833 -0.52522,-1.3125 z m 236.92105,-0.35765 c 0,-0.51754 0.44485,-1.21591 0.98855,-1.55194 0.56686,-0.35033 0.7345,0.0511 0.39301,0.94099 -0.66479,1.73241 -1.38156,2.04938 -1.38156,0.61095 z m -36.92105,-1.64235 c 0.048,-1.16494 0.28494,-1.4019 0.60416,-0.60417 0.28887,0.72188 0.25335,1.58438 -0.0789,1.91667 -0.3323,0.33229 -0.56864,-0.25833 -0.52522,-1.3125 z m -199.25445,-2.74249 c -0.37205,-1.82482 -0.23268,-2.48235 0.39346,-1.85622 0.53328,0.53328 0.79255,1.8049 0.57615,2.82583 -0.29142,1.37481 -0.54288,1.12335 -0.96961,-0.96961 z m 2.25445,0.74249 c 0.048,-1.16494 0.28494,-1.4019 0.60416,-0.60417 0.28887,0.72188 0.25335,1.58438 -0.0789,1.91667 -0.3323,0.33229 -0.56864,-0.25833 -0.52522,-1.3125 z m 48.92105,1.21676 c 0,-1.08346 4.96986,-10.63343 5.53369,-10.63343 0.275,0 -0.68671,2.3625 -2.13715,5.25 -2.78952,5.55336 -3.39654,6.51547 -3.39654,5.38343 z m 115.91245,-0.94756 c 0.4487,-0.44778 2.78946,-0.66456 5.20169,-0.48173 l 4.38586,0.3324 -5.20169,0.48173 c -2.86092,0.26496 -4.83456,0.11537 -4.38586,-0.3324 z m -53.16245,-0.3916 c 1.2375,-0.23835 3.2625,-0.23835 4.5,0 1.2375,0.23835 0.225,0.43337 -2.25,0.43337 -2.475,0 -3.4875,-0.19502 -2.25,-0.43337 z m 120.20416,-1.37991 c -0.61391,-1.14711 -0.92784,-2.27401 -0.69762,-2.50423 0.23022,-0.23022 0.93203,0.70832 1.55958,2.08565 1.37807,3.02454 0.70709,3.35037 -0.86196,0.41858 z m -127.78474,0.65988 c 0.36819,-0.41053 -0.75681,-2.08661 -2.5,-3.72463 -1.92802,-1.81171 -2.38168,-2.59763 -1.15823,-2.00653 1.10615,0.53442 2.82297,1.86868 3.81514,2.96502 1.42861,1.5786 1.53032,2.1514 0.48881,2.75295 -0.72333,0.41778 -1.0139,0.42372 -0.64572,0.0132 z m 53.04818,-3.32424 c -2.39185,-2.33749 -2.43172,-2.45224 -0.26577,-0.76497 4.26786,3.32465 4.47167,3.51497 3.76395,3.51497 -0.37633,0 -1.9505,-1.2375 -3.49818,-2.75 z m -74.13865,0.16667 c 0.048,-1.16494 0.28494,-1.4019 0.60416,-0.60417 0.28887,0.72188 0.25335,1.58438 -0.0789,1.91667 -0.3323,0.33229 -0.56864,-0.25833 -0.52522,-1.3125 z m 97.90607,-0.92382 c 3.98241,-4.79624 4.31751,-5.10557 3.23001,-2.98166 -0.56638,1.10616 -2.08396,2.90294 -3.37241,3.99285 -2.2601,1.91185 -2.25508,1.87623 0.1424,-1.01119 z m -181.90607,-0.0762 c 0.048,-1.16494 0.28494,-1.4019 0.60416,-0.60417 0.28887,0.72188 0.25335,1.58438 -0.0789,1.91667 -0.3323,0.33229 -0.56864,-0.25833 -0.52522,-1.3125 z m 126.92105,0.20578 c 0,-0.20766 0.7875,-0.99516 1.75,-1.75 1.58606,-1.24387 1.62143,-1.2085 0.37755,0.37755 -1.30636,1.66575 -2.12755,2.19548 -2.12755,1.37245 z m 102.51128,-3.24557 c -0.9453,-1.44272 -1.22448,-2.31765 -0.62038,-1.94431 1.15439,0.71346 3.48267,4.56743 2.75929,4.56743 -0.23109,0 -1.1936,-1.1804 -2.13891,-2.62312 z M 342.85792,135.003 c 0,-0.8008 0.38234,-1.21971 0.84965,-0.9309 0.4673,0.28881 0.59075,0.94402 0.27431,1.45601 -0.80862,1.30839 -1.12396,1.16106 -1.12396,-0.52511 z m -22.33333,-1.48497 c 0,-0.51754 0.44485,-1.21591 0.98855,-1.55194 0.56686,-0.35033 0.7345,0.0511 0.39301,0.94099 -0.66479,1.73241 -1.38156,2.04938 -1.38156,0.61095 z m -73.45972,-0.99384 c -0.31776,-0.51415 0.93566,-2.08915 2.78538,-3.5 4.61875,-3.52289 5.81756,-3.25514 1.34382,0.30014 -1.98304,1.57592 -3.31991,3.15092 -2.97084,3.5 0.34908,0.34908 0.36125,0.63468 0.027,0.63468 -0.3342,0 -0.86763,-0.42066 -1.1854,-0.93482 z m 129.02401,-0.3583 c 0.37553,-0.98622 0.93469,-1.54122 1.24258,-1.23334 0.30789,0.30789 6.4e-4,1.1148 -0.68278,1.79313 -0.98762,0.98027 -1.10248,0.86541 -0.5598,-0.55979 z m 38.8407,-1.95688 -1.90499,-2.25 2.25,1.90499 c 1.2375,1.04775 2.25,2.06025 2.25,2.25 0,0.80026 -0.80479,0.20946 -2.59501,-1.90499 z m -146.96229,-0.16823 c -1.06676,-0.78004 -1.675,-1.68279 -1.35166,-2.00613 0.32334,-0.32335 1.40487,0.31486 2.40341,1.41823 2.12444,2.34748 1.68814,2.59135 -1.05175,0.5879 z m 72.90238,-0.12489 c -0.32569,-0.84872 -0.36872,-1.76657 -0.0956,-2.03967 0.27309,-0.27309 0.73656,0.42132 1.02992,1.54313 0.62315,2.38293 -0.0692,2.75089 -0.9343,0.49654 z m 53.65492,0.83224 c 0,-0.57433 0.7875,-1.66183 1.75,-2.41667 1.61875,-1.26952 1.63998,-1.22245 0.28297,0.62755 -0.80687,1.1 -1.59437,2.1875 -1.75,2.41667 -0.15564,0.22917 -0.28297,-0.0532 -0.28297,-0.62755 z m -109.64755,-10.59135 -0.14756,-10.19777 0.78046,9.5 c 0.42925,5.225 0.49565,9.814 0.14755,10.19777 -0.34809,0.38377 -0.6993,-3.89123 -0.78045,-9.5 z m 38.28106,6.80223 c 0.32426,-1.65 0.92643,-6.375 1.33815,-10.5 l 0.7486,-7.5 0.063,6.5 c 0.0347,3.575 -0.56751,8.3 -1.33816,10.5 -0.95116,2.71533 -1.21182,3.0365 -0.81161,1 z m 87.36649,0.5 c -0.90129,-0.58245 -1.02463,-0.97548 -0.30902,-0.98468 0.65504,-0.008 1.4691,0.43468 1.80902,0.98468 0.7673,1.24153 0.42112,1.24153 -1.5,0 z m -154.1875,-1.68311 c 0.72187,-0.28887 1.58437,-0.25334 1.91667,0.079 0.33229,0.33229 -0.25834,0.56864 -1.3125,0.52522 -1.16495,-0.048 -1.4019,-0.28494 -0.60417,-0.60417 z m 143.81666,-0.1079 c -0.26888,-0.43505 1.16707,-0.62744 3.19099,-0.42752 5.53417,0.54665 6.19307,1.05097 1.48887,1.13959 -2.30504,0.0434 -4.41098,-0.27701 -4.67986,-0.71207 z m -21.28635,-7.70899 c 0.004,-4.4 0.17944,-6.0756 0.39069,-3.72356 0.21124,2.35204 0.20827,5.95204 -0.007,8 -0.21488,2.04796 -0.38771,0.12356 -0.38408,-4.27644 z m -40.02274,-1.5 c 0,-3.575 0.1815,-5.0375 0.40333,-3.25 0.22182,1.7875 0.22182,4.7125 0,6.5 -0.22183,1.7875 -0.40333,0.325 -0.40333,-3.25 z m 38.83782,-9 c 0,-1.375 0.22698,-1.9375 0.50439,-1.25 0.27741,0.6875 0.27741,1.8125 0,2.5 -0.27741,0.6875 -0.50439,0.125 -0.50439,-1.25 z m -54,-1 c 0,-1.375 0.22698,-1.9375 0.50439,-1.25 0.27741,0.6875 0.27741,1.8125 0,2.5 -0.27741,0.6875 -0.50439,0.125 -0.50439,-1.25 z m 15.92106,-0.58333 c 0.048,-1.16494 0.28494,-1.4019 0.60416,-0.60417 0.28887,0.72188 0.25335,1.58438 -0.0789,1.91667 -0.3323,0.33229 -0.56864,-0.25833 -0.52522,-1.3125 z m -53,-2 c 0.048,-1.16494 0.28494,-1.4019 0.60416,-0.60417 0.28887,0.72188 0.25335,1.58438 -0.0789,1.91667 -0.3323,0.33229 -0.56864,-0.25833 -0.52522,-1.3125 z m 35.92105,-2.35765 c 0,-0.51754 0.44485,-1.21591 0.98855,-1.551936 0.56686,-0.350339 0.7345,0.05106 0.39301,0.940986 -0.66479,1.73241 -1.38156,2.04938 -1.38156,0.61095 z m 51.14426,-4.809015 c -1.0912,-2.550045 -1.06651,-2.608858 0.33949,-0.80887 0.83394,1.067621 1.51625,2.305121 1.51625,2.75 0,1.519905 -0.67833,0.81036 -1.85574,-1.94113 z m -83.63149,0.770667 c -0.33289,-0.538634 -0.15028,-1.829466 0.4058,-2.868517 0.55608,-1.039052 0.80189,-2.173352 0.54625,-2.520667 -0.25565,-0.347316 -0.15565,-0.397316 0.22222,-0.111112 1.1012,0.834068 1.07481,4.450477 -0.0275,3.769204 -0.59348,-0.366793 -0.74004,0.05821 -0.36084,1.04638 0.69564,1.81283 0.18582,2.257006 -0.78591,0.684712 z m 52.05152,-0.313795 c 0.37553,-0.986221 0.93469,-1.541221 1.24258,-1.233334 0.30789,0.307888 6.4e-4,1.114795 -0.68278,1.793129 -0.98762,0.980267 -1.10248,0.865403 -0.5598,-0.559795 z m -23.10541,-3.773403 c -0.36253,-0.586592 -0.44468,-1.281 -0.18255,-1.543128 0.26212,-0.262129 0.74306,0.21781 1.06875,1.066531 0.67618,1.762107 0.0999,2.072058 -0.8862,0.476597 z m 50.61501,-3.344441 c -0.90221,-1.087087 -0.87293,-1.582985 0.12755,-2.160326 0.71421,-0.412144 0.96496,-0.381111 0.55724,0.06896 -0.40773,0.450074 -0.24013,1.422221 0.37244,2.160326 0.61257,0.738105 0.88877,1.342009 0.61377,1.342009 -0.275,0 -1.02695,-0.634938 -1.671,-1.410972 z m -74.8477,-1.167751 c 0.9494,-0.991226 1.94144,-1.58698 2.20452,-1.323898 0.26308,0.263082 -0.5137,1.074085 -1.72619,1.802229 -2.10631,1.264919 -2.12762,1.243609 -0.47833,-0.478331 z m 52.32947,-0.671277 c 0.9209,-1.5125 2.09916,-2.75 2.61837,-2.75 0.5192,0 0.72362,-0.356587 0.45426,-0.792414 -0.26935,-0.435828 0.44654,-0.862942 1.59088,-0.949143 1.95363,-0.147162 1.93415,-0.0549 -0.31927,1.511657 -1.31995,0.917612 -3.21411,2.582227 -4.20925,3.699143 -1.75845,1.973625 -1.76225,1.95339 -0.13499,-0.719243 z m -33.90483,-2.583333 c -1.41467,-1.563189 -1.4375,-1.833334 -0.15499,-1.833334 0.82729,0 1.28306,0.221096 1.01284,0.491324 -0.27023,0.270229 0.01,1.095229 0.62244,1.833334 1.68294,2.027817 0.42021,1.608704 -1.48029,-0.491324 z m 51.95218,0 c -0.28327,-0.458334 0.12038,-0.833334 0.89699,-0.833334 0.77661,0 1.18026,0.375 0.89699,0.833334 -0.28326,0.458333 -0.68691,0.833333 -0.89699,0.833333 -0.21008,0 -0.61373,-0.375 -0.89699,-0.833333 z m -65.84678,-0.831025 c 0.69093,-0.278554 0.9589,-0.987557 0.59549,-1.575561 -0.39382,-0.637216 -0.18776,-0.776784 0.51008,-0.345491 1.37672,0.850856 0.55006,2.620536 -1.17082,2.506463 -0.85244,-0.05651 -0.83389,-0.222912 0.0652,-0.585411 z m 4.24377,-1.726236 c 0,-0.214827 1.54343,-0.570781 3.42985,-0.79101 1.88642,-0.220229 3.20987,-0.04446 2.94099,0.390594 -0.48392,0.782994 -6.37084,1.152995 -6.37084,0.400416 z m 52.76166,-0.316667 c 1.24391,-0.239193 3.04391,-0.230112 4,0.02018 0.95609,0.250292 -0.0617,0.445996 -2.26166,0.434896 -2.2,-0.0111 -2.98225,-0.215884 -1.73834,-0.455077 z"
         id="path8" /><path
         style="display:inline;fill:#000000;fill-opacity:1"
         d="m 309.72459,448.25901 c -0.84823,-0.84822 -1.2,-6.71111 -1.2,-20 v -18.8 h -18.8 c -13.28889,0 -19.15177,-0.35177 -20,-1.2 -0.85809,-0.85809 -1.2,-7.25884 -1.2,-22.46481 0,-20.00045 0.11501,-21.32637 1.93426,-22.3 1.12858,-0.604 9.45917,-1.03519 20,-1.03519 h 18.06574 v -18.8 c 0,-13.28888 0.35177,-19.15177 1.2,-20 1.86831,-1.86831 43.1532,-1.68427 44.71645,0.19934 0.80267,0.96715 1.12404,7.32469 1.04055,20.58477 -0.0664,10.55199 0.21321,19.48479 0.62143,19.85066 0.40822,0.36588 0.41852,0.10273 0.0229,-0.58477 -0.9244,-1.60633 34.48499,-1.80936 37.46443,-0.21481 1.81959,0.97381 1.93426,2.30043 1.93426,22.37755 0,17.09992 -0.27902,21.57394 -1.40365,22.5073 -0.98776,0.81977 -6.98767,1.07826 -20.25,0.87244 l -18.84635,-0.29248 0.29248,18.84636 c 0.20582,13.26233 -0.0527,19.26224 -0.87245,20.25 -1.56651,1.88754 -42.84815,2.07553 -44.72003,0.20364 z m 0.74887,-16.3 -0.56923,-16 -0.18982,14.66822 c -0.1044,8.06751 0.0908,15.39942 0.43372,16.29313 0.34294,0.8937 0.68452,1.493 0.75905,1.33178 0.0745,-0.16122 -0.12064,-7.49313 -0.43372,-16.29313 z m 43.44414,14.91822 c 0.33384,-0.86999 0.5099,-9.53249 0.39122,-19.25 l -0.21576,-17.66822 -0.53424,18.5 -0.53423,18.5 -20.5,0.53136 -20.5,0.53136 20.64301,0.21864 c 18.03197,0.19099 20.71979,0.0186 21.25,-1.36314 z m -82.89301,-60.41822 c 0,-12.1 -0.3375,-22 -0.75,-22 -0.9266,0 -1.00816,42.40851 -0.0833,43.33334 0.36666,0.36666 0.70416,0.66666 0.75,0.66666 0.0458,0 0.0833,-9.9 0.0833,-22 z m 27.25,21.25544 c -4.8125,-0.18332 -12.6875,-0.18332 -17.5,0 -4.8125,0.18331 -0.875,0.33329 8.75,0.33329 9.625,0 13.5625,-0.14998 8.75,-0.33329 z m 86.5,5.8e-4 c -4.5375,-0.1853 -11.9625,-0.1853 -16.5,0 -4.5375,0.18529 -0.825,0.33689 8.25,0.33689 9.075,0 12.7875,-0.1516 8.25,-0.33689 z m 8.52041,-43.41907 c -1.60428,-1.01822 -35.77018,-1.10127 -35.77107,-0.087 -3.7e-4,0.4125 7.98713,0.75 17.75,0.75 h 17.75066 l 0.48933,21.5 0.48933,21.5 0.28108,-21.42837 c 0.21623,-16.4846 -0.012,-21.61439 -0.98933,-22.23468 z m -83.02534,-29.08695 c -0.18149,-5.0875 -0.32999,-0.925 -0.32999,9.25 0,10.175 0.1485,14.3375 0.32999,9.25 0.18149,-5.0875 0.18149,-13.4125 0,-18.5 z m 35.75493,-11.05977 c 3.85,-0.16106 -2.5625,-0.38224 -14.25,-0.49153 -11.6875,-0.10928 -21.25073,0.1388 -21.25162,0.5513 -10e-4,0.68672 18.39776,0.65574 35.50162,-0.0598 z m -220.4521,46.30977 c -7.88607,-39.875 -14.72219,-73.53975 -15.19138,-74.81056 -0.83293,-2.25601 -1.12308,-2.30324 -12.286524,-2 l -11.433449,0.31056 -0.318273,-7.25232 -0.318274,-7.25233 18.1791,0.002 18.1791,0.002 1.03533,5.25 c 0.56943,2.8875 2.21569,11.2354 3.65836,18.55089 1.44267,7.31548 2.36383,13.97635 2.04703,14.80193 -0.31681,0.82559 -0.22537,1.28435 0.20319,1.01949 0.42857,-0.26487 2.48323,8.14926 4.56592,18.69806 5.44664,27.58712 5.70243,28.67963 6.71483,28.67963 0.50443,0 0.9025,-0.5625 0.88461,-1.25 -0.0179,-0.6875 9.30234,-45.94493 20.71163,-100.57207 13.66227,-65.41427 21.01855,-98.70003 21.5479,-97.5 0.52853,1.19818 0.60862,0.83215 0.23392,-1.06896 -0.31971,-1.62209 0.84852,-9.69453 2.66158,-18.39149 l 3.2314,-15.50045 3.8321,16.89149 c 2.15148,9.4835 3.60996,18.20717 3.32559,19.89148 -0.33126,1.96206 -0.23508,2.37091 0.27799,1.18171 0.51669,-1.19756 6.71115,24.06451 18.1454,74 9.54849,41.70006 17.58093,76.04329 17.84986,76.31829 0.26893,0.275 0.6908,-0.0653 0.93747,-0.75623 0.24668,-0.69092 0.74758,-1.0716 1.1131,-0.84595 0.36552,0.22564 0.73676,-0.55905 0.82496,-1.74377 0.0882,-1.18473 4.01337,-10.14155 8.72259,-19.90405 l 8.56221,-17.75 h 77.52742 77.52741 l 1.2e-4,7.25 1.3e-4,7.25 -71.74442,-0.26324 c -39.45944,-0.14478 -72.42199,0.0392 -73.25013,0.40876 -0.82813,0.3696 -1.87665,0.58941 -2.33003,0.48847 -0.45338,-0.10095 -0.55842,0.24671 -0.23343,0.77256 0.851,1.37694 -2.58124,8.12558 -3.76154,7.39612 -0.57194,-0.35348 -0.67278,-0.0989 -0.23889,0.60318 0.41296,0.66818 0.19031,2.56808 -0.49476,4.222 -0.94204,2.27426 -1.47592,2.68604 -2.19066,1.68964 -0.69383,-0.96725 -0.79301,-0.84604 -0.3731,0.45599 0.70412,2.18326 -4.37289,12.85099 -5.71987,12.01851 -0.55476,-0.34286 -0.64994,-0.0792 -0.22161,0.61386 0.99606,1.61166 -1.38291,7.24859 -2.71237,6.42694 -0.57115,-0.35299 -0.74566,-0.16804 -0.38779,0.41101 0.35787,0.57904 -3.14171,9.02388 -7.77684,18.7663 l -8.42752,17.71349 -1.2491,-4.36179 c -0.687,-2.39899 -1.28039,-6.23132 -1.31864,-8.5163 -0.0383,-2.28498 -0.33931,-3.71803 -0.66902,-3.18455 -0.3297,0.53347 -1.16977,-1.71742 -1.8668,-5.002 -0.69703,-3.28457 -0.92024,-6.53355 -0.49602,-7.21996 0.43826,-0.70911 0.3623,-0.99522 -0.1759,-0.6626 -1.24552,0.76978 -11.87701,-45.63376 -10.83968,-47.3122 0.46312,-0.74934 0.38437,-1.02444 -0.19138,-0.6686 -1.36408,0.84305 -14.5771,-57.28306 -13.8566,-60.95728 0.38329,-1.95458 0.30247,-2.25996 -0.25958,-0.9808 -0.58498,1.33135 -1.62466,-1.71365 -3.67045,-10.75 -1.56986,-6.93413 -3.2345,-12.60751 -3.69921,-12.60751 -0.4647,0 -0.84209,0.3375 -0.83863,0.75 0.0217,2.59653 -44.5133,213.05468 -45.01843,212.7425 -0.34428,-0.21278 -0.4505,1.05186 -0.23605,2.81032 0.30664,2.51439 0.15473,2.87684 -0.71132,1.69718 -0.87684,-1.19435 -0.98709,-0.99058 -0.54105,1 0.3081,1.375 -0.26634,6.55 -1.27653,11.5 l -1.8367,9 z m 14.61438,62.75 c -0.27741,-0.6875 -0.50439,-0.125 -0.50439,1.25 0,1.375 0.22698,1.9375 0.50439,1.25 0.27741,-0.6875 0.27741,-1.8125 0,-2.5 z m -2.97917,-12.9375 c -0.31922,-0.79773 -0.55618,-0.56077 -0.60416,0.60417 -0.0434,1.05417 0.19292,1.64479 0.52522,1.3125 0.33229,-0.33229 0.36781,-1.19479 0.0789,-1.91667 z m 7.97917,-11.0625 c -0.27741,-0.6875 -0.50439,-0.125 -0.50439,1.25 0,1.375 0.22698,1.9375 0.50439,1.25 0.27741,-0.6875 0.27741,-1.8125 0,-2.5 z m -10.97917,-4.9375 c -0.31922,-0.79773 -0.55618,-0.56077 -0.60416,0.60417 -0.0434,1.05417 0.19292,1.64479 0.52522,1.3125 0.33229,-0.33229 0.36781,-1.19479 0.0789,-1.91667 z m 12,0 c -0.31922,-0.79773 -0.55618,-0.56077 -0.60416,0.60417 -0.0434,1.05417 0.19292,1.64479 0.52522,1.3125 0.33229,-0.33229 0.36781,-1.19479 0.0789,-1.91667 z m -14,-9 c -0.31922,-0.79773 -0.55618,-0.56077 -0.60416,0.60417 -0.0434,1.05417 0.19292,1.64479 0.52522,1.3125 0.33229,-0.33229 0.36781,-1.19479 0.0789,-1.91667 z m 17,-4 c -0.31922,-0.79773 -0.55618,-0.56077 -0.60416,0.60417 -0.0434,1.05417 0.19292,1.64479 0.52522,1.3125 0.33229,-0.33229 0.36781,-1.19479 0.0789,-1.91667 z m -18,-1 c -0.31922,-0.79773 -0.55618,-0.56077 -0.60416,0.60417 -0.0434,1.05417 0.19292,1.64479 0.52522,1.3125 0.33229,-0.33229 0.36781,-1.19479 0.0789,-1.91667 z m 19.97917,-9.0625 c -0.27741,-0.6875 -0.50439,-0.125 -0.50439,1.25 0,1.375 0.22698,1.9375 0.50439,1.25 0.27741,-0.6875 0.27741,-1.8125 0,-2.5 z m -21.97917,-0.9375 c -0.31922,-0.79773 -0.55618,-0.56077 -0.60416,0.60417 -0.0434,1.05417 0.19292,1.64479 0.52522,1.3125 0.33229,-0.33229 0.36781,-1.19479 0.0789,-1.91667 z m -1.02083,-6.0625 c -0.27741,-0.6875 -0.50439,-0.125 -0.50439,1.25 0,1.375 0.22698,1.9375 0.50439,1.25 0.27741,-0.6875 0.27741,-1.8125 0,-2.5 z m 26.11972,-7.25 c 0.0146,-1.56719 -0.15462,-1.45899 -0.782,0.5 -0.44035,1.375 -0.79225,3.625 -0.78201,5 0.0167,2.2456 0.0963,2.19472 0.78201,-0.5 0.41985,-1.65 0.77176,-3.9 0.782,-5 z m -27.09889,1.3125 c -0.31922,-0.79773 -0.55618,-0.56077 -0.60416,0.60417 -0.0434,1.05417 0.19292,1.64479 0.52522,1.3125 0.33229,-0.33229 0.36781,-1.19479 0.0789,-1.91667 z m -1,-4 c -0.31922,-0.79773 -0.55618,-0.56077 -0.60416,0.60417 -0.0434,1.05417 0.19292,1.64479 0.52522,1.3125 0.33229,-0.33229 0.36781,-1.19479 0.0789,-1.91667 z m 17,-2 c -0.31922,-0.79773 -0.55618,-0.56077 -0.60416,0.60417 -0.0434,1.05417 0.19292,1.64479 0.52522,1.3125 0.33229,-0.33229 0.36781,-1.19479 0.0789,-1.91667 z m 12,0 c -0.31922,-0.79773 -0.55618,-0.56077 -0.60416,0.60417 -0.0434,1.05417 0.19292,1.64479 0.52522,1.3125 0.33229,-0.33229 0.36781,-1.19479 0.0789,-1.91667 z m -30,-2 c -0.31922,-0.79773 -0.55618,-0.56077 -0.60416,0.60417 -0.0434,1.05417 0.19292,1.64479 0.52522,1.3125 0.33229,-0.33229 0.36781,-1.19479 0.0789,-1.91667 z m 12,0 c -0.31922,-0.79773 -0.55618,-0.56077 -0.60416,0.60417 -0.0434,1.05417 0.19292,1.64479 0.52522,1.3125 0.33229,-0.33229 0.36781,-1.19479 0.0789,-1.91667 z m 93.2366,-0.8125 c 1.12265,-2.35726 1.10183,-2.38917 -0.36454,-0.55887 -0.85535,1.06763 -1.55517,2.38013 -1.55517,2.91667 0,1.27054 0.4619,0.70324 1.91971,-2.3578 z m -86.25743,-2.25 c -0.27741,-0.6875 -0.50439,-0.125 -0.50439,1.25 0,1.375 0.22698,1.9375 0.50439,1.25 0.27741,-0.6875 0.27741,-1.8125 0,-2.5 z m -20,-3 c -0.27741,-0.6875 -0.50439,-0.125 -0.50439,1.25 0,1.375 0.22698,1.9375 0.50439,1.25 0.27741,-0.6875 0.27741,-1.8125 0,-2.5 z m 110.30709,-3.25 c 0,-0.55 -0.43621,-0.325 -0.96937,0.5 -0.53316,0.825 -0.96937,1.95 -0.96937,2.5 0,0.55 0.43621,0.325 0.96937,-0.5 0.53316,-0.825 0.96937,-1.95 0.96937,-2.5 z m -111.27638,-2.23096 c -0.25354,-0.97297 -0.47766,-0.41904 -0.49804,1.23096 -0.0204,1.65 0.18706,2.44607 0.46099,1.76904 0.27392,-0.67704 0.29059,-2.02704 0.037,-3 z m 22.99012,-0.45654 c -0.31922,-0.79773 -0.55618,-0.56077 -0.60416,0.60417 -0.0434,1.05417 0.19292,1.64479 0.52522,1.3125 0.33229,-0.33229 0.36781,-1.19479 0.0789,-1.91667 z m 11.97917,-1.0625 c -0.27741,-0.6875 -0.50439,-0.125 -0.50439,1.25 0,1.375 0.22698,1.9375 0.50439,1.25 0.27741,-0.6875 0.27741,-1.8125 0,-2.5 z m -25.05333,-7.32557 c -0.75654,-3.80843 -1.42805,-5.93407 -1.49224,-4.72365 -0.13947,2.62991 1.9094,12.60644 2.47319,12.04266 0.21702,-0.21702 -0.22441,-3.51057 -0.98095,-7.31901 z m -10.92584,4.38807 c -0.31922,-0.79773 -0.55618,-0.56077 -0.60416,0.60417 -0.0434,1.05417 0.19292,1.64479 0.52522,1.3125 0.33229,-0.33229 0.36781,-1.19479 0.0789,-1.91667 z m 24.97917,-1.0625 c -0.27741,-0.6875 -0.50439,-0.125 -0.50439,1.25 0,1.375 0.22698,1.9375 0.50439,1.25 0.27741,-0.6875 0.27741,-1.8125 0,-2.5 z m 91.71928,-1.30193 c 0.34149,-0.88993 0.17385,-1.29132 -0.39301,-0.94099 -0.5437,0.33603 -0.98855,1.0344 -0.98855,1.55194 0,1.43843 0.71677,1.12146 1.38156,-0.61095 z M 119.51487,331.73777 c -1.08042,-1.68388 -1.1106,-1.68105 -0.56579,0.053 0.31653,1.00749 0.63679,2.80749 0.71169,4 0.13605,2.16607 0.13661,2.16601 0.56578,-0.053 0.23628,-1.22168 -0.084,-3.02168 -0.71168,-4 z m 41.69283,1.53374 c -0.31922,-0.79773 -0.55618,-0.56077 -0.60416,0.60417 -0.0434,1.05417 0.19292,1.64479 0.52522,1.3125 0.33229,-0.33229 0.36781,-1.19479 0.0789,-1.91667 z m -30.28311,-5.7125 c -0.36648,-2.29185 -0.87608,-3.95725 -1.13245,-3.70088 -0.25636,0.25636 -0.15176,2.32676 0.23245,4.60088 0.38421,2.27413 0.89381,3.93953 1.13245,3.70089 0.23863,-0.23864 0.13403,-2.30903 -0.23245,-4.60089 z m 19.26228,1.65 c -0.27741,-0.6875 -0.50439,-0.125 -0.50439,1.25 0,1.375 0.22698,1.9375 0.50439,1.25 0.27741,-0.6875 0.27741,-1.8125 0,-2.5 z m 1,-5 c -0.27741,-0.6875 -0.50439,-0.125 -0.50439,1.25 0,1.375 0.22698,1.9375 0.50439,1.25 0.27741,-0.6875 0.27741,-1.8125 0,-2.5 z m 12,-1 c -0.27741,-0.6875 -0.50439,-0.125 -0.50439,1.25 0,1.375 0.22698,1.9375 0.50439,1.25 0.27741,-0.6875 0.27741,-1.8125 0,-2.5 z m -10.97917,-3.9375 c -0.31922,-0.79773 -0.55618,-0.56077 -0.60416,0.60417 -0.0434,1.05417 0.19292,1.64479 0.52522,1.3125 0.33229,-0.33229 0.36781,-1.19479 0.0789,-1.91667 z m 12,0 c -0.31922,-0.79773 -0.55618,-0.56077 -0.60416,0.60417 -0.0434,1.05417 0.19292,1.64479 0.52522,1.3125 0.33229,-0.33229 0.36781,-1.19479 0.0789,-1.91667 z m 55,-2 c -0.31922,-0.79773 -0.55618,-0.56077 -0.60416,0.60417 -0.0434,1.05417 0.19292,1.64479 0.52522,1.3125 0.33229,-0.33229 0.36781,-1.19479 0.0789,-1.91667 z m 11.69189,-1.6875 c -0.35139,-1.75694 -0.84734,-2.98599 -1.10211,-2.73122 -0.25476,0.25477 -0.15257,1.87757 0.22711,3.60622 0.90076,4.10115 1.70865,3.29326 0.875,-0.875 z m -114.69189,-1.3125 c -0.31922,-0.79773 -0.55618,-0.56077 -0.60416,0.60417 -0.0434,1.05417 0.19292,1.64479 0.52522,1.3125 0.33229,-0.33229 0.36781,-1.19479 0.0789,-1.91667 z m 49,0 c -0.31922,-0.79773 -0.55618,-0.56077 -0.60416,0.60417 -0.0434,1.05417 0.19292,1.64479 0.52522,1.3125 0.33229,-0.33229 0.36781,-1.19479 0.0789,-1.91667 z m -37.59824,-1.91731 c -0.52695,-1.31735 -0.98662,-1.86949 -1.02148,-1.22697 -0.0847,1.56061 1.08023,4.5215 1.58163,4.0201 0.21887,-0.21887 -0.0332,-1.47578 -0.56015,-2.79313 z m 26.89982,-1.81185 c 0.0203,-3.20963 -0.54827,-2.39612 -1.33965,1.91666 -0.45185,2.46243 -0.35075,3.05533 0.34104,2 0.54081,-0.825 0.99018,-2.5875 0.99861,-3.91666 z m 11.67759,-1.33334 c -0.27741,-0.6875 -0.50439,-0.125 -0.50439,1.25 0,1.375 0.22698,1.9375 0.50439,1.25 0.27741,-0.6875 0.27741,-1.8125 0,-2.5 z m -50.97917,0.0625 c -0.31922,-0.79773 -0.55618,-0.56077 -0.60416,0.60417 -0.0434,1.05417 0.19292,1.64479 0.52522,1.3125 0.33229,-0.33229 0.36781,-1.19479 0.0789,-1.91667 z m 126.69845,-1.36443 c 0.34149,-0.88993 0.17385,-1.29132 -0.39301,-0.94099 -0.5437,0.33603 -0.98855,1.0344 -0.98855,1.55194 0,1.43843 0.71677,1.12146 1.38156,-0.61095 z m -115.71928,-3.69807 c -0.27741,-0.6875 -0.50439,-0.125 -0.50439,1.25 0,1.375 0.22698,1.9375 0.50439,1.25 0.27741,-0.6875 0.27741,-1.8125 0,-2.5 z m 31.82218,-10.18513 c 0.41814,-4.20014 0.17351,-3.69902 -1.4328,2.93513 -1.06536,4.4 -1.91833,8.675 -1.89547,9.5 0.0794,2.86572 2.827,-7.39998 3.32827,-12.43513 z m -43.79147,8.70417 c -0.25354,-0.97297 -0.47766,-0.41904 -0.49804,1.23096 -0.0204,1.65 0.18706,2.44607 0.46099,1.76904 0.27392,-0.67704 0.29059,-2.02704 0.037,-3 z m 113.99012,1.54346 c -0.31922,-0.79773 -0.55618,-0.56077 -0.60416,0.60417 -0.0434,1.05417 0.19292,1.64479 0.52522,1.3125 0.33229,-0.33229 0.36781,-1.19479 0.0789,-1.91667 z m 17.24602,-4.3125 c 0,-0.55 -0.64311,0.125 -1.42913,1.5 -0.78602,1.375 -1.42913,2.95 -1.42913,3.5 0,0.55 0.64311,-0.125 1.42913,-1.5 0.78602,-1.375 1.42913,-2.95 1.42913,-3.5 z m -120.81295,-3.09906 c -0.5034,-2.14551 -0.95434,-3.00094 -1.00207,-1.90094 -0.10322,2.37831 0.97488,6.74435 1.52863,6.1906 0.2138,-0.2138 -0.0232,-2.14415 -0.52656,-4.28966 z m -11.43307,1.41156 c -0.31922,-0.79773 -0.55618,-0.56077 -0.60416,0.60417 -0.0434,1.05417 0.19292,1.64479 0.52522,1.3125 0.33229,-0.33229 0.36781,-1.19479 0.0789,-1.91667 z m 146.69845,-0.36443 c 0.34149,-0.88993 0.17385,-1.29132 -0.39301,-0.94099 -0.5437,0.33603 -0.98855,1.0344 -0.98855,1.55194 0,1.43843 0.71677,1.12146 1.38156,-0.61095 z m -33.71928,-2.69807 c -0.27741,-0.6875 -0.50439,-0.125 -0.50439,1.25 0,1.375 0.22698,1.9375 0.50439,1.25 0.27741,-0.6875 0.27741,-1.8125 0,-2.5 z m 21.14459,0.72354 c -0.30789,-0.30788 -0.86705,0.24712 -1.24258,1.23334 -0.54268,1.4252 -0.42782,1.54006 0.5598,0.55979 0.68342,-0.67833 0.99067,-1.48524 0.68278,-1.79313 z m -78.14459,-1.72354 c -0.27741,-0.6875 -0.50439,-0.125 -0.50439,1.25 0,1.375 0.22698,1.9375 0.50439,1.25 0.27741,-0.6875 0.27741,-1.8125 0,-2.5 z m -56.97917,0.0625 c -0.31922,-0.79773 -0.55618,-0.56077 -0.60416,0.60417 -0.0434,1.05417 0.19292,1.64479 0.52522,1.3125 0.33229,-0.33229 0.36781,-1.19479 0.0789,-1.91667 z m 113,-3 c -0.31922,-0.79773 -0.55618,-0.56077 -0.60416,0.60417 -0.0434,1.05417 0.19292,1.64479 0.52522,1.3125 0.33229,-0.33229 0.36781,-1.19479 0.0789,-1.91667 z m -55,-1 c -0.31922,-0.79773 -0.55618,-0.56077 -0.60416,0.60417 -0.0434,1.05417 0.19292,1.64479 0.52522,1.3125 0.33229,-0.33229 0.36781,-1.19479 0.0789,-1.91667 z m -11.02083,-5.0625 c -0.27741,-0.6875 -0.50439,-0.125 -0.50439,1.25 0,1.375 0.22698,1.9375 0.50439,1.25 0.27741,-0.6875 0.27741,-1.8125 0,-2.5 z m 12,0 c -0.27741,-0.6875 -0.50439,-0.125 -0.50439,1.25 0,1.375 0.22698,1.9375 0.50439,1.25 0.27741,-0.6875 0.27741,-1.8125 0,-2.5 z m -49,-1 c -0.27741,-0.6875 -0.50439,-0.125 -0.50439,1.25 0,1.375 0.22698,1.9375 0.50439,1.25 0.27741,-0.6875 0.27741,-1.8125 0,-2.5 z m 130.33772,1.25 c 0.5887,-1.1 0.84537,-2 0.57037,-2 -0.275,0 -0.98167,0.9 -1.57037,2 -0.5887,1.1 -0.84537,2 -0.57037,2 0.275,0 0.98167,-0.9 1.57037,-2 z m -29.31689,-3.1875 c -0.31922,-0.79773 -0.55618,-0.56077 -0.60416,0.60417 -0.0434,1.05417 0.19292,1.64479 0.52522,1.3125 0.33229,-0.33229 0.36781,-1.19479 0.0789,-1.91667 z m -51.02083,-2.0625 c -0.27741,-0.6875 -0.50439,-0.125 -0.50439,1.25 0,1.375 0.22698,1.9375 0.50439,1.25 0.27741,-0.6875 0.27741,-1.8125 0,-2.5 z m -50.66396,1 c 9.2e-4,-0.4125 -7.64832,-0.75 -16.99832,-0.75 -9.35,0 -17.000351,0.3375 -17.000779,0.75 -4.28e-4,0.4125 7.648814,0.75 16.998319,0.75 9.3495,0 16.99985,-0.3375 17.00078,-0.75 z m 248.75168,-0.49963 c -20.7625,-0.15093 -54.7375,-0.15093 -75.5,0 -20.7625,0.15093 -3.775,0.27442 37.75,0.27442 41.525,0 58.5125,-0.12349 37.75,-0.27442 z M 173.2077,276.27151 c -0.31922,-0.79773 -0.55618,-0.56077 -0.60416,0.60417 -0.0434,1.05417 0.19292,1.64479 0.52522,1.3125 0.33229,-0.33229 0.36781,-1.19479 0.0789,-1.91667 z m 47.24546,-6.24107 c -0.68727,-3.07106 -1.44244,-5.39089 -1.67816,-5.15517 -0.23571,0.23571 0.13374,2.94126 0.82102,6.01232 0.68727,3.07106 1.44244,5.39088 1.67816,5.15517 0.23571,-0.23571 -0.13375,-2.94126 -0.82102,-6.01232 z m -46.24546,2.24107 c -0.31922,-0.79773 -0.55618,-0.56077 -0.60416,0.60417 -0.0434,1.05417 0.19292,1.64479 0.52522,1.3125 0.33229,-0.33229 0.36781,-1.19479 0.0789,-1.91667 z m -10.85308,-4.3125 c -0.0236,-1.60778 -0.1864,-1.50973 -0.83003,0.5 -1.09501,3.41918 -1.09501,6.04823 0,3.5 0.47269,-1.1 0.8462,-2.9 0.83003,-4 z m 44.85308,1.3125 c -0.31922,-0.79773 -0.55618,-0.56077 -0.60416,0.60417 -0.0434,1.05417 0.19292,1.64479 0.52522,1.3125 0.33229,-0.33229 0.36781,-1.19479 0.0789,-1.91667 z m -33.02083,-3.0625 c -0.27741,-0.6875 -0.50439,-0.125 -0.50439,1.25 0,1.375 0.22698,1.9375 0.50439,1.25 0.27741,-0.6875 0.27741,-1.8125 0,-2.5 z m 32.02083,-0.9375 c -0.31922,-0.79773 -0.55618,-0.56077 -0.60416,0.60417 -0.0434,1.05417 0.19292,1.64479 0.52522,1.3125 0.33229,-0.33229 0.36781,-1.19479 0.0789,-1.91667 z m -42.99012,-3.54346 c -0.25354,-0.97297 -0.47766,-0.41904 -0.49804,1.23096 -0.0204,1.65 0.18706,2.44607 0.46099,1.76904 0.27392,-0.67704 0.29059,-2.02704 0.037,-3 z m 41.32173,-4.31588 -1.07114,-2.45316 0.51456,2.5 c 0.283,1.375 0.58198,3.4 0.66439,4.5 0.14597,1.94843 0.16032,1.94722 0.55658,-0.0468 0.22371,-1.12576 -0.0753,-3.15076 -0.66439,-4.5 z m -27.35244,-6.20316 c -0.27741,-0.6875 -0.50439,-0.125 -0.50439,1.25 0,1.375 0.22698,1.9375 0.50439,1.25 0.27741,-0.6875 0.27741,-1.8125 0,-2.5 z m 26,0 c -0.27741,-0.6875 -0.50439,-0.125 -0.50439,1.25 0,1.375 0.22698,1.9375 0.50439,1.25 0.27741,-0.6875 0.27741,-1.8125 0,-2.5 z m 12.02083,1.0625 c -0.31922,-0.79773 -0.55618,-0.56077 -0.60416,0.60417 -0.0434,1.05417 0.19292,1.64479 0.52522,1.3125 0.33229,-0.33229 0.36781,-1.19479 0.0789,-1.91667 z m -48.99012,-4.54346 c -0.25354,-0.97297 -0.47766,-0.41904 -0.49804,1.23096 -0.0204,1.65 0.18706,2.44607 0.46099,1.76904 0.27392,-0.67704 0.29059,-2.02704 0.037,-3 z m 47.99012,0.54346 c -0.31922,-0.79773 -0.55618,-0.56077 -0.60416,0.60417 -0.0434,1.05417 0.19292,1.64479 0.52522,1.3125 0.33229,-0.33229 0.36781,-1.19479 0.0789,-1.91667 z m -36,-1 c -0.31922,-0.79773 -0.55618,-0.56077 -0.60416,0.60417 -0.0434,1.05417 0.19292,1.64479 0.52522,1.3125 0.33229,-0.33229 0.36781,-1.19479 0.0789,-1.91667 z m 23.76133,-2.25694 c -0.37648,-2.00685 -0.90952,-3.42381 -1.18452,-3.14881 -0.275,0.275 -0.19196,2.14196 0.18452,4.14881 0.37649,2.00685 0.90953,3.42381 1.18453,3.14881 0.275,-0.275 0.19196,-2.14196 -0.18453,-4.14881 z m 11.21784,-1.80556 c -0.27741,-0.6875 -0.50439,-0.125 -0.50439,1.25 0,1.375 0.22698,1.9375 0.50439,1.25 0.27741,-0.6875 0.27741,-1.8125 0,-2.5 z m -32.97917,-4.9375 c -0.31922,-0.79773 -0.55618,-0.56077 -0.60416,0.60417 -0.0434,1.05417 0.19292,1.64479 0.52522,1.3125 0.33229,-0.33229 0.36781,-1.19479 0.0789,-1.91667 z m -10.69842,-4.22916 c 0.0204,-2.55845 -0.55192,-1.76026 -1.37439,1.91666 -0.49007,2.19092 -0.3973,2.59546 0.34401,1.5 0.55829,-0.825 1.02195,-2.3625 1.03038,-3.41666 z m 40.69842,-3.77084 c -0.31922,-0.79773 -0.55618,-0.56077 -0.60416,0.60417 -0.0434,1.05417 0.19292,1.64479 0.52522,1.3125 0.33229,-0.33229 0.36781,-1.19479 0.0789,-1.91667 z m -37.90111,-9.8125 c -0.0167,-2.24559 -0.0963,-2.19471 -0.782,0.5 -0.41985,1.65 -0.77176,3.9 -0.78201,5 -0.0146,1.5672 0.15463,1.459 0.78201,-0.5 0.44035,-1.375 0.79225,-3.625 0.782,-5 z m 35.88028,0.75 c -0.27741,-0.6875 -0.50439,-0.125 -0.50439,1.25 0,1.375 0.22698,1.9375 0.50439,1.25 0.27741,-0.6875 0.27741,-1.8125 0,-2.5 z m -23.97917,-1.9375 c -0.31922,-0.79773 -0.55618,-0.56077 -0.60416,0.60417 -0.0434,1.05417 0.19292,1.64479 0.52522,1.3125 0.33229,-0.33229 0.36781,-1.19479 0.0789,-1.91667 z m -11,-5 c -0.31922,-0.79773 -0.55618,-0.56077 -0.60416,0.60417 -0.0434,1.05417 0.19292,1.64479 0.52522,1.3125 0.33229,-0.33229 0.36781,-1.19479 0.0789,-1.91667 z m 2.09889,-8.8125 c -0.0167,-2.24559 -0.0963,-2.19471 -0.782,0.5 -0.41985,1.65 -0.77176,3.9 -0.78201,5 -0.0146,1.5672 0.15463,1.459 0.78201,-0.5 0.44035,-1.375 0.79225,-3.625 0.782,-5 z m 10.88028,3.75 c -0.27741,-0.6875 -0.50439,-0.125 -0.50439,1.25 0,1.375 0.22698,1.9375 0.50439,1.25 0.27741,-0.6875 0.27741,-1.8125 0,-2.5 z m 8.33772,-0.86803 c 0,-0.55 -0.45,-0.72188 -1,-0.38197 -0.55,0.33992 -1,1.06804 -1,1.61804 0,0.55 0.45,0.72188 1,0.38196 0.55,-0.33991 1,-1.06803 1,-1.61803 z m 9.44444,-5.32641 c -0.37648,-2.00685 -0.88452,-3.44881 -1.12896,-3.20437 -0.24445,0.24445 -0.13641,2.08641 0.24008,4.09326 0.37648,2.00685 0.88452,3.44881 1.12896,3.20437 0.24445,-0.24445 0.13641,-2.08641 -0.24008,-4.09326 z m -26.51473,-6.47222 c 0.10163,-3.49422 -0.56648,-2.22634 -1.27346,2.41666 -0.42449,2.7878 -0.33447,3.3939 0.29705,2 0.49837,-1.1 0.93776,-3.0875 0.97641,-4.41666 z m 24.7534,-1.27084 c -0.31922,-0.79773 -0.55618,-0.56077 -0.60416,0.60417 -0.0434,1.05417 0.19292,1.64479 0.52522,1.3125 0.33229,-0.33229 0.36781,-1.19479 0.0789,-1.91667 z m -24,-5 c -0.31922,-0.79773 -0.55618,-0.56077 -0.60416,0.60417 -0.0434,1.05417 0.19292,1.64479 0.52522,1.3125 0.33229,-0.33229 0.36781,-1.19479 0.0789,-1.91667 z m 2.31689,-4.17292 c 0,-0.74824 0.2112,-3.56074 0.46933,-6.25 0.39854,-4.15211 0.34439,-4.36169 -0.35906,-1.38958 -0.45561,1.925 -1.16559,4.7375 -1.57773,6.25 -0.48959,1.79669 -0.36512,2.75 0.35905,2.75 0.60963,0 1.10841,-0.61219 1.10841,-1.36042 z m 18.68311,-3.82708 c -0.31922,-0.79773 -0.55618,-0.56077 -0.60416,0.60417 -0.0434,1.05417 0.19292,1.64479 0.52522,1.3125 0.33229,-0.33229 0.36781,-1.19479 0.0789,-1.91667 z m -1,-4 c -0.31922,-0.79773 -0.55618,-0.56077 -0.60416,0.60417 -0.0434,1.05417 0.19292,1.64479 0.52522,1.3125 0.33229,-0.33229 0.36781,-1.19479 0.0789,-1.91667 z m -16.02083,-7.0625 c -0.27741,-0.6875 -0.50439,-0.125 -0.50439,1.25 0,1.375 0.22698,1.9375 0.50439,1.25 0.27741,-0.6875 0.27741,-1.8125 0,-2.5 z m 12,-11 c -0.27741,-0.6875 -0.50439,-0.125 -0.50439,1.25 0,1.375 0.22698,1.9375 0.50439,1.25 0.27741,-0.6875 0.27741,-1.8125 0,-2.5 z m -7.96929,-7.48096 c -0.25354,-0.97297 -0.47766,-0.41904 -0.49804,1.23096 -0.0204,1.65 0.18706,2.44607 0.46099,1.76904 0.27392,-0.67704 0.29059,-2.02704 0.037,-3 z m 5.99012,-0.45654 c -0.31922,-0.79773 -0.55618,-0.56077 -0.60416,0.60417 -0.0434,1.05417 0.19292,1.64479 0.52522,1.3125 0.33229,-0.33229 0.36781,-1.19479 0.0789,-1.91667 z m -5,-5 c -0.31922,-0.79773 -0.55618,-0.56077 -0.60416,0.60417 -0.0434,1.05417 0.19292,1.64479 0.52522,1.3125 0.33229,-0.33229 0.36781,-1.19479 0.0789,-1.91667 z m 0.97917,-5.0625 c -0.27741,-0.6875 -0.50439,-0.125 -0.50439,1.25 0,1.375 0.22698,1.9375 0.50439,1.25 0.27741,-0.6875 0.27741,-1.8125 0,-2.5 z m 2.02083,1.0625 c -0.31922,-0.79773 -0.55618,-0.56077 -0.60416,0.60417 -0.0434,1.05417 0.19292,1.64479 0.52522,1.3125 0.33229,-0.33229 0.36781,-1.19479 0.0789,-1.91667 z m -1,-5 c -0.31922,-0.79773 -0.55618,-0.56077 -0.60416,0.60417 -0.0434,1.05417 0.19292,1.64479 0.52522,1.3125 0.33229,-0.33229 0.36781,-1.19479 0.0789,-1.91667 z m 87.87727,114.22835 c -2.71679,-1.09533 -5.64179,-2.741 -6.5,-3.65705 -1.10859,-1.18329 -1.15372,-1.43524 -0.15587,-0.87015 0.94732,0.53647 1.16896,0.41426 0.6809,-0.37545 -0.39798,-0.64395 -1.17087,-0.8944 -1.71752,-0.55655 -0.54666,0.33785 -1.86556,-0.17455 -2.9309,-1.13867 -2.14868,-1.94452 -2.64835,-3.98838 -0.68699,-2.81003 0.84936,0.51027 0.81011,0.20867 -0.12245,-0.94099 -1.55523,-1.9173 -2.61452,-2.2889 -1.53206,-0.53745 0.45628,0.73828 0.27271,0.88207 -0.50916,0.39885 -0.67247,-0.41561 -0.98319,-1.37974 -0.69049,-2.14251 0.2927,-0.76277 0.0247,-1.27975 -0.59558,-1.14885 -0.62027,0.1309 -1.98897,-2.462 -3.04155,-5.762 -3.8295,-12.00598 -0.56003,-23.56971 9.33157,-33.0047 3.24209,-3.09243 6.28268,-5.38283 6.75686,-5.08977 0.47418,0.29306 1.94005,-0.67718 3.2575,-2.15608 1.31745,-1.47891 1.60786,-2.08494 0.64536,-1.34674 -0.9625,0.7382 -1.75,0.90683 -1.75,0.37473 0,-1.27911 3.51422,-4.42988 4.18865,-3.75545 0.28949,0.28949 1.15297,-0.24591 1.91885,-1.18978 1.16814,-1.43962 1.17019,-1.58221 0.0128,-0.88497 -0.95413,0.57477 -1.23689,0.40263 -0.91667,-0.55804 0.25469,-0.76406 0.95057,-1.3892 1.5464,-1.3892 0.59583,0 1.45833,-0.40964 1.91667,-0.91032 0.492,-0.53746 0.26819,-0.58284 -0.5464,-0.1108 -0.94931,0.55009 -1.22228,0.36613 -0.875,-0.58968 0.2776,-0.76406 0.95804,-1.29434 1.51208,-1.17841 0.55405,0.11593 0.9478,-0.55907 0.875,-1.5 -0.0728,-0.94093 0.41395,-1.60368 1.08166,-1.47278 0.66771,0.1309 0.98324,-0.36339 0.70117,-1.09843 -0.7205,-1.87762 6.74337,-11.00329 12.37135,-15.12576 2.59241,-1.89893 7.63847,-4.67778 11.21347,-6.17522 5.69482,-2.38534 7.86261,-2.72979 17.5,-2.7806 11.71912,-0.0618 21.07455,1.76256 18.4218,3.59232 -1.03817,0.71609 -0.80645,0.80731 0.85879,0.3381 1.52496,-0.42969 3.67861,0.17786 6.5,1.83368 5.93066,3.48058 13.91784,10.71842 13.37866,12.12351 -0.24858,0.64777 0.45481,2.275 1.56307,3.61608 l 2.01502,2.43831 -1.64172,-2.75 c -2.50507,-4.19616 -0.97135,-3.27489 1.98488,1.19229 1.43488,2.16825 2.30782,4.4294 1.93986,5.02477 -0.36796,0.59537 -0.12932,0.95885 0.53031,0.80772 0.65963,-0.15113 1.42646,0.35036 1.70406,1.11442 0.34727,0.95581 0.0743,1.13977 -0.875,0.58968 -0.81459,-0.47204 -1.0384,-0.42666 -0.5464,0.1108 0.45834,0.50068 1.35834,0.91149 2,0.91291 0.64167,0.001 1.17189,0.77164 1.17828,1.71161 0.006,0.93996 0.65968,2.28879 1.45177,2.99741 1.25175,1.11984 1.25419,1.02674 0.0186,-0.71161 -1.05745,-1.48778 -0.71742,-1.37202 1.3277,0.45201 1.51207,1.3486 2.5449,2.98443 2.29519,3.63518 -0.24972,0.65076 0.97452,2.47236 2.72052,4.048 l 3.17456,2.86481 -3,-3.44617 c -2.92077,-3.35517 -2.86795,-3.33783 2,0.65648 10.22209,8.38755 14.02377,14.47306 15.1893,24.31415 0.72839,6.15011 -1.84798,16.50059 -4.99824,20.08026 -1.20508,1.36935 -1.74106,1.79348 -1.19106,0.94251 0.86978,-1.34575 0.77355,-1.3697 -0.73899,-0.18392 -0.95644,0.74982 -1.4802,1.78203 -1.16391,2.29381 0.66842,1.08153 -1.37373,3.84288 -2.84199,3.84288 -0.55,0 -0.3824,-0.7875 0.37244,-1.75 1.23829,-1.57893 1.20451,-1.61843 -0.34558,-0.40408 -0.94492,0.74025 -1.61992,1.86525 -1.5,2.5 0.11992,0.63475 -2.03197,2.27908 -4.78197,3.65408 -7.74999,3.875 -19.15264,3.9996 -34.24357,0.37418 -15.31027,-3.6781 -28.71384,-3.8103 -41.25643,-0.40689 -12.10791,3.28545 -27.7444,3.77288 -34.43962,1.07356 z m 9.70865,0.30322 c -0.67703,-0.27392 -2.02703,-0.2906 -3,-0.0371 -0.97297,0.25355 -0.41903,0.47767 1.23097,0.49805 1.65,0.0204 2.44606,-0.18707 1.76903,-0.46099 z m 15.23097,-0.34407 3,-0.76337 -3.5,-0.0186 c -1.925,-0.0102 -4.625,0.34165 -6,0.782 -2.42617,0.777 -2.4114,0.80009 0.5,0.78201 1.65,-0.0102 4.35,-0.36215 6,-0.78201 z m 63.75,0.33772 c -0.6875,-0.27741 -1.8125,-0.27741 -2.5,0 -0.6875,0.27742 -0.125,0.50439 1.25,0.50439 1.375,0 1.9375,-0.22697 1.25,-0.50439 z m 14.47917,0.0581 c -0.3323,-0.33229 -1.1948,-0.36782 -1.91667,-0.0789 -0.79773,0.31923 -0.56078,0.55618 0.60417,0.60417 1.05416,0.0434 1.64479,-0.19293 1.3125,-0.52522 z m -99,-1 c -0.3323,-0.33229 -1.1948,-0.36782 -1.91667,-0.0789 -0.79773,0.31923 -0.56078,0.55618 0.60417,0.60417 1.05416,0.0434 1.64479,-0.19293 1.3125,-0.52522 z m 79,0 c -0.3323,-0.33229 -1.1948,-0.36782 -1.91667,-0.0789 -0.79773,0.31923 -0.56078,0.55618 0.60417,0.60417 1.05416,0.0434 1.64479,-0.19293 1.3125,-0.52522 z m -82.8125,-0.76038 c -0.22917,-0.2005 -1.54167,-0.90033 -2.91667,-1.55517 -2.35727,-1.12264 -2.38918,-1.10183 -0.55887,0.36455 1.593,1.27625 4.84786,2.39128 3.47554,1.19062 z m 30.8125,-0.23962 c -0.3323,-0.33229 -1.1948,-0.36782 -1.91667,-0.0789 -0.79773,0.31923 -0.56078,0.55618 0.60417,0.60417 1.05416,0.0434 1.64479,-0.19293 1.3125,-0.52522 z m 4,-1 c -0.3323,-0.33229 -1.1948,-0.36782 -1.91667,-0.0789 -0.79773,0.31923 -0.56078,0.55618 0.60417,0.60417 1.05416,0.0434 1.64479,-0.19293 1.3125,-0.52522 z m 38.27083,-0.39584 c -1.375,-0.44035 -3.4,-0.80064 -4.5,-0.80064 -1.58367,0 -1.47958,0.16667 0.5,0.80064 1.375,0.44036 3.4,0.80064 4.5,0.80064 1.58367,0 1.47958,-0.16666 -0.5,-0.80064 z m -33.27083,-0.60416 c -0.3323,-0.33229 -1.1948,-0.36782 -1.91667,-0.0789 -0.79773,0.31923 -0.56078,0.55618 0.60417,0.60417 1.05416,0.0434 1.64479,-0.19293 1.3125,-0.52522 z m 5,-1 c -0.3323,-0.33229 -1.1948,-0.36782 -1.91667,-0.0789 -0.79773,0.31923 -0.56078,0.55618 0.60417,0.60417 1.05416,0.0434 1.64479,-0.19293 1.3125,-0.52522 z m 19,0 c -0.3323,-0.33229 -1.1948,-0.36782 -1.91667,-0.0789 -0.79773,0.31923 -0.56078,0.55618 0.60417,0.60417 1.05416,0.0434 1.64479,-0.19293 1.3125,-0.52522 z m 60.2402,-13.89584 c 0,-0.55 -0.43621,-0.325 -0.96937,0.5 -0.53316,0.825 -0.96937,1.95 -0.96937,2.5 0,0.55 0.43621,0.325 0.96937,-0.5 0.53316,-0.825 0.96937,-1.95 0.96937,-2.5 z m 0.69291,-4.75 c -0.27741,-0.6875 -0.50439,-0.125 -0.50439,1.25 0,1.375 0.22698,1.9375 0.50439,1.25 0.27741,-0.6875 0.27741,-1.8125 0,-2.5 z m -142.01635,-6.5 c 0.0337,-7.84186 -0.0591,-8.29257 -0.89411,-4.3427 -0.75957,3.59294 -0.31436,13.0927 0.6136,13.0927 0.13359,0 0.25981,-3.9375 0.28051,-8.75 z m 143.06133,-0.48834 c -0.23919,-1.24391 -0.44398,-0.46166 -0.45508,1.73834 -0.0111,2.2 0.18461,3.21775 0.4349,2.26166 0.25029,-0.95608 0.25937,-2.75608 0.0202,-4 z M 264.45372,207.95901 c 0,-0.55 -0.64311,0.125 -1.42913,1.5 -0.78602,1.375 -1.42913,2.95 -1.42913,3.5 0,0.55 0.64311,-0.125 1.42913,-1.5 0.78602,-1.375 1.42913,-2.95 1.42913,-3.5 z m 137.19294,2.82501 c -1.17884,-2.02722 -1.46351,-1.37836 -0.49853,1.13634 0.34294,0.8937 0.83419,1.41425 1.09166,1.15679 0.25747,-0.25747 -0.009,-1.28938 -0.59313,-2.29313 z m -132.62207,-8.32501 c 2.14824,-2.2 3.6809,-4 3.4059,-4 -0.275,0 -2.25766,1.8 -4.4059,4 -2.14824,2.2 -3.6809,4 -3.4059,4 0.275,0 2.25766,-1.8 4.4059,-4 z m 129.5,2.69617 c 0,-0.16711 -1.6875,-1.85461 -3.75,-3.75 l -3.75,-3.44617 3.44617,3.75 c 3.20761,3.49042 4.05383,4.20979 4.05383,3.44617 z m -123.61844,-7.2481 c 0.34149,-0.88993 0.17385,-1.29132 -0.39301,-0.94099 -0.5437,0.33603 -0.98855,1.0344 -0.98855,1.55194 0,1.43843 0.71677,1.12146 1.38156,-0.61095 z m 19.11844,-25.44807 c 0.99549,-1.1 1.58497,-2 1.30997,-2 -0.275,0 -1.31448,0.9 -2.30997,2 -0.99549,1.1 -1.58498,2 -1.30998,2 0.275,0 1.31449,-0.9 2.30998,-2 z m 4,-5 c 0.99549,-1.1 1.58497,-2 1.30997,-2 -0.275,0 -1.31448,0.9 -2.30997,2 -0.99549,1.1 -1.58498,2 -1.30998,2 0.275,0 1.31449,-0.9 2.30998,-2 z m 69.5,0.62245 c 0,-0.20766 -0.7875,-0.99516 -1.75,-1.75 -1.58606,-1.24387 -1.62143,-1.2085 -0.37756,0.37755 1.30637,1.66575 2.12756,2.19548 2.12756,1.37245 z m -64.5,-4.62245 c 0.99549,-1.1 1.58497,-2 1.30997,-2 -0.275,0 -1.31448,0.9 -2.30997,2 -0.99549,1.1 -1.58498,2 -1.30998,2 0.275,0 1.31449,-0.9 2.30998,-2 z m 59.45469,0.44541 c -0.70961,-0.85503 -2.22721,-2.02 -3.37245,-2.58883 -1.24803,-0.61989 -0.88035,-0.0115 0.91776,1.51863 3.44222,2.92918 4.31234,3.30854 2.45469,1.0702 z m -45.45469,-7.44541 c 1.31874,-0.56668 1.48905,-0.87815 0.5,-0.9144 -0.825,-0.0302 -2.175,0.38125 -3,0.9144 -1.82797,1.18133 -0.24909,1.18133 2.5,0 z m 5.22917,-1.60416 c -0.3323,-0.33229 -1.1948,-0.36782 -1.91667,-0.0789 -0.79773,0.31923 -0.56078,0.55618 0.60417,0.60417 1.05416,0.0434 1.64479,-0.19293 1.3125,-0.52522 z m 19.77083,-0.39584 c -1.65,-0.41985 -6.375,-0.73409 -10.5,-0.6983 l -7.5,0.0651 8,0.63324 c 4.4,0.34829 9.125,0.66252 10.5,0.69831 2.1676,0.0564 2.10112,-0.0364 -0.5,-0.69831 z m -91.86274,32.53519 c -4.72933,-1.68595 -9.11313,-5.72441 -11.97884,-11.03519 -1.83799,-3.40617 -2.15842,-5.63302 -2.15842,-15 0,-10.62226 0.12708,-11.26612 3.70071,-18.75 2.03539,-4.2625 3.95547,-7.75 4.26684,-7.75 0.31138,0 -0.56644,2.23505 -1.9507,4.96676 -1.38427,2.73172 -2.49562,5.31922 -2.46967,5.75 0.0259,0.43079 1.33039,-1.69176 2.89876,-4.71676 1.56837,-3.025 2.62298,-5.87406 2.34358,-6.33126 -0.66776,-1.09268 4.47866,-6.46497 7.91082,-8.25801 1.48519,-0.7759 4.73203,-1.41073 7.2152,-1.41073 7.82525,0 13.59142,7.05888 17.16697,21.0156 2.13979,8.35242 1.5631,20.709 -1.26175,27.03521 -2.44838,5.48312 -8.15492,12.22681 -9.80919,11.59201 -0.65612,-0.25178 -1.82713,-0.007 -2.60225,0.54404 -1.104,0.78477 -1.01894,0.87553 0.39262,0.41893 0.99106,-0.32058 1.56121,-0.19338 1.267,0.28267 -0.49397,0.79926 -8.41756,3.16794 -10.26176,3.06765 -0.44395,-0.0241 -2.54541,-0.66355 -4.66992,-1.42092 z m 2.09191,-1.13935 c -0.3323,-0.33229 -1.1948,-0.36782 -1.91667,-0.0789 -0.79773,0.31923 -0.56078,0.55618 0.60417,0.60417 1.05416,0.0434 1.64479,-0.19293 1.3125,-0.52522 z m 9,0 c -0.3323,-0.33229 -1.1948,-0.36782 -1.91667,-0.0789 -0.79773,0.31923 -0.56078,0.55618 0.60417,0.60417 1.05416,0.0434 1.64479,-0.19293 1.3125,-0.52522 z m -17.53734,-4.83013 c -1.65844,-1.88886 -3.32114,-4.39777 -3.69489,-5.57536 -0.37376,-1.17759 -0.89992,-1.92069 -1.16927,-1.65135 -0.72971,0.72971 1.57013,4.78943 4.48161,7.911 3.6718,3.93678 3.97061,3.40228 0.38255,-0.68429 z m 26.30817,-0.56571 c 0.99549,-1.1 1.58497,-2 1.30997,-2 -0.275,0 -1.31448,0.9 -2.30997,2 -0.99549,1.1 -1.58498,2 -1.30998,2 0.275,0 1.31449,-0.9 2.30998,-2 z m 4.46937,-7.5 c 0,-0.55 -0.43621,-0.325 -0.96937,0.5 -0.53316,0.825 -0.96937,1.95 -0.96937,2.5 0,0.55 0.43621,0.325 0.96937,-0.5 0.53316,-0.825 0.96937,-1.95 0.96937,-2.5 z m -36.5408,-3.92857 c -0.36782,-1.46551 -0.86162,-2.47171 -1.09733,-2.23599 -0.23572,0.23571 -0.12763,1.62762 0.24019,3.09314 0.36782,1.46551 0.86162,2.47171 1.09733,2.23599 0.23572,-0.23571 0.12763,-1.62762 -0.24019,-3.09314 z m 39.5138,-12.98809 c 0.0865,-8.87633 -0.59295,-6.35724 -1.19119,4.41666 -0.35028,6.30816 -0.24846,8.15607 0.30303,5.5 0.45679,-2.2 0.85646,-6.6625 0.88816,-9.91666 z m -40.23511,-0.82168 c -0.23919,-1.24391 -0.44398,-0.46166 -0.45508,1.73834 -0.0111,2.2 0.18461,3.21775 0.4349,2.26166 0.25029,-0.95608 0.25937,-2.75608 0.0202,-4 z m 2.20714,-7.76166 c -0.0362,-0.98905 -0.34772,-0.81874 -0.9144,0.5 -1.18132,2.74909 -1.18132,4.32797 0,2.5 0.53316,-0.825 0.94464,-2.175 0.9144,-3 z m 34.76871,-8.1875 c -0.31922,-0.79773 -0.55618,-0.56077 -0.60416,0.60417 -0.0434,1.05417 0.19292,1.64479 0.52522,1.3125 0.33229,-0.33229 0.36781,-1.19479 0.0789,-1.91667 z m -25.98447,-6.44718 c -0.34907,-0.34908 0.9878,-1.92408 2.97084,-3.5 4.47374,-3.55528 3.27493,-3.82303 -1.34382,-0.30014 -2.8717,2.19036 -3.68145,4.43482 -1.59998,4.43482 0.33421,0 0.32204,-0.2856 -0.027,-0.63468 z m 20.79581,-3.37145 c -0.99854,-1.10337 -2.08007,-1.74158 -2.40341,-1.41823 -0.32334,0.32334 0.2849,1.22609 1.35166,2.00613 2.73989,2.00345 3.17619,1.75958 1.05175,-0.5879 z m -10.76528,-3.59803 c -0.3323,-0.33229 -1.1948,-0.36782 -1.91667,-0.079 -0.79773,0.31923 -0.56078,0.55618 0.60417,0.60417 1.05416,0.0434 1.64479,-0.19293 1.3125,-0.52522 z m 144.14169,61.0395 c -5.39882,-1.66237 -10.98706,-7.28437 -14.22696,-14.31293 -1.7221,-3.73587 -2.13202,-6.54031 -2.13733,-14.62241 -0.007,-10.58763 2.04257,-20.71272 3.70792,-18.31795 0.62079,0.89269 0.71617,0.60413 0.29562,-0.89427 -0.70514,-2.51235 1.10679,-6.64257 2.52861,-5.76385 0.5161,0.31897 0.70694,-0.0231 0.42409,-0.76024 -0.28285,-0.73711 0.82626,-2.62451 2.4647,-4.19424 3.72712,-3.5708 11.13917,-4.62056 15.75844,-2.23185 6.08421,3.14627 12.01108,11.97413 15.79281,23.52282 2.39844,7.32438 1.76724,20.92509 -1.24073,26.73427 -2.72005,5.25315 -8.15498,10.01063 -12.9607,11.34519 -4.58723,1.27388 -4.63883,1.27138 -10.40647,-0.50454 z m 2.85831,-1.0395 c -0.3323,-0.33229 -1.1948,-0.36782 -1.91667,-0.0789 -0.79773,0.31923 -0.56078,0.55618 0.60417,0.60417 1.05416,0.0434 1.64479,-0.19293 1.3125,-0.52522 z m 9,0 c -0.3323,-0.33229 -1.1948,-0.36782 -1.91667,-0.0789 -0.79773,0.31923 -0.56078,0.55618 0.60417,0.60417 1.05416,0.0434 1.64479,-0.19293 1.3125,-0.52522 z M 401.52459,185.066 c 0,-0.21615 -0.69837,-0.661 -1.55194,-0.98854 -0.88992,-0.3415 -1.29132,-0.17385 -0.94098,0.39301 0.58726,0.9502 2.49292,1.40545 2.49292,0.59553 z m 19.99637,-4.26516 2.49636,-2.84183 -3.49636,2.99225 c -5.54019,4.74139 -5.60165,4.80682 -3.49637,3.72198 1.1,-0.56682 3.12336,-2.3094 4.49637,-3.8724 z m -26.05708,-0.0918 c -4.05099,-4.62378 -4.28119,-4.84144 -3.43723,-3.25 0.99062,1.86798 4.67264,6 5.34657,6 0.275,0 -0.5842,-1.2375 -1.90934,-2.75 z m 31.7537,-14.98096 c -0.25354,-0.97297 -0.47766,-0.41904 -0.49804,1.23096 -0.0204,1.65 0.18706,2.44607 0.46099,1.76904 0.27392,-0.67704 0.29059,-2.02704 0.0371,-3 z m -39.96452,-12.01904 c -0.21575,-2.0625 -0.39226,-0.375 -0.39226,3.75 0,4.125 0.17651,5.8125 0.39226,3.75 0.21574,-2.0625 0.21574,-5.4375 0,-7.5 z m 0.95464,-8.4375 c -0.31922,-0.79773 -0.55618,-0.56077 -0.60416,0.60417 -0.0434,1.05417 0.19292,1.64479 0.52522,1.3125 0.33229,-0.33229 0.36781,-1.19479 0.0789,-1.91667 z m 35.13301,-3.31672 c -0.62755,-1.37733 -1.32936,-2.31587 -1.55958,-2.08565 -0.46705,0.46705 1.56047,4.58987 2.2572,4.58987 0.24386,0 -0.0701,-1.1269 -0.69762,-2.50422 z m -2.78631,-5.44008 c -0.57231,-1.06937 -1.53482,-2.24978 -2.13891,-2.62313 -0.6041,-0.37334 -0.32492,0.50159 0.62038,1.94431 2.00162,3.05486 3.03812,3.5182 1.51853,0.67882 z m -3.02981,-4.40071 c 0,-0.18975 -1.0125,-1.20225 -2.25,-2.25 l -2.25,-1.90499 1.90499,2.25 c 1.79022,2.11445 2.59501,2.70525 2.59501,1.90499 z m -20.96703,-3.15499 c 1.35701,-1.85 1.33578,-1.89707 -0.28297,-0.62755 -0.9625,0.75484 -1.75,1.84234 -1.75,2.41667 0,0.57432 0.12733,0.85672 0.28297,0.62755 0.15563,-0.22917 0.94313,-1.31667 1.75,-2.41667 z m 15.46703,-1.5 c -0.33992,-0.55 -1.15398,-0.9931 -1.80902,-0.98468 -0.71561,0.009 -0.59227,0.40223 0.30902,0.98468 1.92112,1.24153 2.2673,1.24153 1.5,0 z m -5.25,-1.70573 c -1.2375,-0.23835 -3.2625,-0.23835 -4.5,0 -1.2375,0.23835 -0.225,0.43337 2.25,0.43337 2.475,0 3.4875,-0.19502 2.25,-0.43337 z m -109.75,18.13877 c -5.13587,-2.66148 -9.41986,-7.60458 -11.59728,-13.38155 -3.72468,-9.88208 -1.26657,-29.22275 4.65314,-36.611303 1.47871,-1.845618 1.49853,-1.825285 0.40667,0.417177 -0.86456,1.775627 -0.86356,2.639332 0.004,3.5 0.86729,0.860321 0.97173,0.669725 0.42271,-0.771404 -0.44042,-1.156051 -0.34427,-1.67615 0.2428,-1.313326 0.55493,0.342966 0.94965,-0.764427 0.91993,-2.580892 -0.0286,-1.749886 0.39796,-3.19564 0.94796,-3.212786 1.4093,-0.04394 5.22868,-2.411511 3.95,-2.448542 -0.5775,-0.01672 -1.59,0.509591 -2.25,1.169591 -0.93333,0.933333 -1.2,0.928439 -1.2,-0.02202 0,-0.672113 2.1375,-2.595221 4.75,-4.273572 3.89961,-2.505232 5.50973,-2.970982 8.99362,-2.601532 4.94306,0.524188 11.69699,5.106529 10.83549,7.351562 -0.31756,0.827561 -0.12192,1.181039 0.456,0.823866 1.23112,-0.760873 4.34352,6.038502 6.42878,14.044381 3.15028,12.09475 1.32864,24.61856 -4.7539,32.68319 -5.78666,7.6723 -16.13372,10.89419 -23.20999,7.22716 z m 9.75,-0.13877 c -1.2375,-0.23835 -3.2625,-0.23835 -4.5,0 -1.2375,0.23835 -0.225,0.43337 2.25,0.43337 2.475,0 3.4875,-0.19502 2.25,-0.43337 z m -11.83382,-3.38689 c -1.04159,-1.15094 -2.79884,-2.52988 -3.90499,-3.0643 -1.18041,-0.5703 -0.66217,0.29411 1.25459,2.09262 3.70403,3.47552 5.51828,4.14066 2.6504,0.97168 z m 23.71137,-2.65738 c 1.24388,-1.58605 1.20851,-1.62142 -0.37755,-0.37755 -1.66575,1.30637 -2.19548,2.12755 -1.37245,2.12755 0.20766,0 0.99516,-0.7875 1.75,-1.75 z m 3.25401,-4.80193 c 0.34149,-0.88993 0.17385,-1.29132 -0.39301,-0.94099 -0.5437,0.33603 -0.98855,1.0344 -0.98855,1.55194 0,1.43843 0.71677,1.12146 1.38156,-0.61095 z m -36.35912,-13.44807 c -0.67135,-8.84465 -0.73149,-9.04298 -0.87177,-2.875 -0.13252,5.82712 0.68278,13.45547 1.35304,12.65973 0.13191,-0.1566 -0.0847,-4.55973 -0.48127,-9.78473 z m 39.76084,-4 -0.063,-6.5 -0.7486,7.5 c -0.41172,4.125 -1.01389,8.85 -1.33815,10.5 -0.40021,2.0365 -0.13955,1.71533 0.81161,-1 0.77065,-2.2 1.37282,-6.925 1.33816,-10.5 z m -1.121,-10.25 c -0.27741,-0.6875 -0.50439,-0.125 -0.50439,1.25 0,1.375 0.22698,1.9375 0.50439,1.25 0.27741,-0.6875 0.27741,-1.8125 0,-2.5 z m -36.97917,-1.9375 c -0.31922,-0.79773 -0.55618,-0.56077 -0.60416,0.60417 -0.0434,1.05417 0.19292,1.64479 0.52522,1.3125 0.33229,-0.33229 0.36781,-1.19479 0.0789,-1.91667 z m 32.66197,-10.355623 c -0.32569,-0.848721 -0.80663,-1.32866 -1.06875,-1.066531 -0.26213,0.262128 -0.17998,0.956536 0.18255,1.543128 0.98605,1.595461 1.56238,1.28551 0.8862,-0.476597 z m -4.34508,-5.801885 c 0,-0.189756 -1.0125,-1.202256 -2.25,-2.25 l -2.25,-1.904987 1.90499,2.25 c 1.79022,2.114445 2.59501,2.705241 2.59501,1.904987 z m -14.50708,-2.643533 c 0.35034,-0.56686 -0.0511,-0.734507 -0.94098,-0.393011 -1.73242,0.664791 -2.04939,1.381557 -0.61096,1.381557 0.51754,0 1.21592,-0.444846 1.55194,-0.988546 z m 7.25708,-1.70078 c -0.9625,-0.251527 -2.5375,-0.251527 -3.5,0 -0.9625,0.251528 -0.175,0.457323 1.75,0.457323 1.925,0 2.7125,-0.205795 1.75,-0.457323 z m 43.22627,60.439321 c -11.5165,-5.8262 -16.80032,-22.48755 -12.44016,-39.22731 2.04904,-7.866824 5.19095,-14.809403 6.37181,-14.079593 0.52538,0.324702 1.54853,-0.22727 2.27366,-1.226606 0.72513,-0.999335 2.43105,-2.581864 3.79093,-3.51673 1.35987,-0.934866 1.95699,-1.699756 1.32692,-1.699756 -0.63007,0 -2.5302,1.384615 -4.22251,3.076923 -1.69231,1.692308 -3.07692,2.59513 -3.07692,2.006272 0,-2.114015 8.20786,-7.083195 11.6997,-7.083195 3.15528,0 9.3003,2.368528 9.3003,3.584697 0,0.293335 -0.5625,0.209633 -1.25,-0.186005 -0.71427,-0.411046 -0.89832,-0.334661 -0.42942,0.178229 0.45132,0.493664 1.57632,0.90331 2.5,0.910325 0.92368,0.007 1.68464,0.782977 1.69103,1.72436 0.006,0.941383 0.65968,2.291383 1.45177,3 1.23265,1.102746 1.23097,1.000209 -0.0116,-0.711606 -1.30359,-1.795867 -1.29033,-1.874177 0.12992,-0.767244 2.88736,2.250394 7.0952,11.115999 6.41836,13.523019 -0.43114,1.53324 -0.33774,1.82189 0.29481,0.91114 1.39131,-2.00323 3.20514,6.33741 3.20514,14.73839 0,8.94247 -2.72657,16.45149 -7.74357,21.32593 -6.47986,6.29573 -13.49734,7.4561 -21.28016,3.51876 z m 11.28748,0.54607 c -1.22994,-0.23736 -3.47994,-0.2435 -5,-0.0136 -1.52006,0.22986 -0.51375,0.42406 2.23625,0.43157 2.75,0.008 3.99369,-0.18055 2.76375,-0.41792 z m -11.81375,-2.06104 c -5.20537,-4.19159 -5.97202,-4.66239 -3.2324,-1.98503 1.54768,1.5125 3.12185,2.75 3.49818,2.75 0.37632,0 0.25672,-0.34424 -0.26578,-0.76497 z m 23.76503,-5.72384 c 1.0875,-2.12391 0.7524,-1.81458 -3.23001,2.98166 -2.39748,2.88742 -2.4025,2.92304 -0.1424,1.01119 1.28845,-1.08991 2.80603,-2.88669 3.37241,-3.99285 z m 2.59184,-5.03765 c -0.30789,-0.30788 -0.86705,0.24712 -1.24258,1.23334 -0.54268,1.4252 -0.42782,1.54006 0.5598,0.55979 0.68342,-0.67833 0.99067,-1.48524 0.68278,-1.79313 z m -35.52749,-1.5132 c -0.29336,-1.12181 -0.75683,-1.81622 -1.02992,-1.54313 -0.541,0.541 0.41459,3.58279 1.12554,3.58279 0.24077,0 0.19774,-0.91784 -0.0956,-2.03966 z m 37.45412,-15.1839 c -0.21125,-2.35204 -0.38706,-0.67644 -0.39069,3.72356 -0.004,4.4 0.1692,6.3244 0.38408,4.27644 0.21488,-2.04796 0.21785,-5.64796 0.007,-8 z m -40.0101,-1.02644 c -0.22183,-1.7875 -0.40333,-0.325 -0.40333,3.25 0,3.575 0.1815,5.0375 0.40333,3.25 0.22182,-1.7875 0.22182,-4.7125 0,-6.5 z m 38.93888,-7 c -0.27741,-0.6875 -0.50439,-0.125 -0.50439,1.25 0,1.375 0.22698,1.9375 0.50439,1.25 0.27741,-0.6875 0.27741,-1.8125 0,-2.5 z m -37.97917,-0.9375 c -0.31922,-0.79773 -0.55618,-0.56077 -0.60416,0.60417 -0.0434,1.05417 0.19292,1.64479 0.52522,1.3125 0.33229,-0.33229 0.36781,-1.19479 0.0789,-1.91667 z m 35.31689,-6.621365 c 0,-0.444879 -0.68231,-1.682379 -1.51625,-2.75 -1.406,-1.799988 -1.43069,-1.741175 -0.33949,0.80887 1.17741,2.75149 1.85574,3.461035 1.85574,1.94113 z m -32.19313,-2.717592 c -0.30789,-0.307887 -0.86705,0.247113 -1.24258,1.233334 -0.54268,1.425198 -0.42782,1.540062 0.5598,0.559795 0.68342,-0.678334 0.99067,-1.485241 0.68278,-1.793129 z m 16.95479,-13.160618 c -0.95609,-0.250293 -2.75609,-0.259374 -4,-0.02018 -1.24391,0.239193 -0.46166,0.443978 1.73834,0.455077 2.2,0.0111 3.21775,-0.184604 2.26166,-0.434896 z"
         id="path7" /></g></g></svg>
