<?xml version="1.0" encoding="UTF-8" standalone="no"?>
<!-- Created with Inkscape (http://www.inkscape.org/) -->

<svg
   width="512"
   height="512"
   viewBox="0 0 512 512"
   version="1.1"
   id="svg1"
   xml:space="preserve"
   inkscape:version="1.4.2 (ebf0e940d0, 2025-05-08)"
   sodipodi:docname="pet-nutrition.svg"
   xmlns:inkscape="http://www.inkscape.org/namespaces/inkscape"
   xmlns:sodipodi="http://sodipodi.sourceforge.net/DTD/sodipodi-0.dtd"
   xmlns="http://www.w3.org/2000/svg"
   xmlns:svg="http://www.w3.org/2000/svg"><sodipodi:namedview
     id="namedview1"
     pagecolor="#ffffff"
     bordercolor="#000000"
     borderopacity="0.25"
     inkscape:showpageshadow="2"
     inkscape:pageopacity="0.0"
     inkscape:pagecheckerboard="0"
     inkscape:deskcolor="#d1d1d1"
     inkscape:document-units="px"
     inkscape:zoom="0.953125"
     inkscape:cx="256"
     inkscape:cy="256"
     inkscape:window-width="1366"
     inkscape:window-height="708"
     inkscape:window-x="0"
     inkscape:window-y="0"
     inkscape:window-maximized="1"
     inkscape:current-layer="layer1" /><defs
     id="defs1" /><g
     inkscape:label="Layer 1"
     inkscape:groupmode="layer"
     id="layer1"><g
       id="g1"
       transform="matrix(3.325796,0,0,3.6725516,-666.06133,-420.89518)"
       style="fill:#000000"><path
         style="fill:#000000;fill-opacity:1"
         d="m 286.25218,210 c 0.0111,-2.2 0.21589,-2.98225 0.45508,-1.73834 0.23919,1.24391 0.23011,3.04391 -0.0202,4 -0.25029,0.95609 -0.446,-0.0617 -0.4349,-2.26166 z m -19.98315,-7.19299 c 0.97297,-0.25354 2.32297,-0.23687 3,0.0371 0.67703,0.27393 -0.11903,0.48137 -1.76903,0.46099 -1.65,-0.0204 -2.20394,-0.2445 -1.23097,-0.49804 z m 15,0 c 0.97297,-0.25354 2.32297,-0.23687 3,0.0371 0.67703,0.27393 -0.11903,0.48137 -1.76903,0.46099 -1.65,-0.0204 -2.20394,-0.2445 -1.23097,-0.49804 z M 286.32814,196 c 0.004,-3.85 0.18518,-5.30246 0.40166,-3.2277 0.21647,2.07477 0.21284,5.22477 -0.008,7 -0.22091,1.77524 -0.39803,0.0777 -0.39359,-3.7723 z m 32.43352,2.79274 c 1.24391,-0.23919 3.04391,-0.23011 4,0.0202 0.95609,0.25029 -0.0617,0.446 -2.26166,0.4349 -2.2,-0.0111 -2.98225,-0.21589 -1.73834,-0.45508 z"
         id="path7" /><path
         style="fill:#000000;fill-opacity:1"
         d="m 317.75,209.79427 c 1.2375,-0.23836 3.2625,-0.23836 4.5,0 1.2375,0.23835 0.225,0.43337 -2.25,0.43337 -2.475,0 -3.4875,-0.19502 -2.25,-0.43337 z m -45.5,-7.01052 c 1.5125,-0.22913 3.9875,-0.22913 5.5,0 1.5125,0.22912 0.275,0.41659 -2.75,0.41659 -3.025,0 -4.2625,-0.18747 -2.75,-0.41659 z"
         id="path6" /><path
         style="fill:#000000;fill-opacity:1"
         d="m 350.29966,209.5 c 0,-3.025 0.18747,-4.2625 0.41659,-2.75 0.22913,1.5125 0.22913,3.9875 0,5.5 -0.22912,1.5125 -0.41659,0.275 -0.41659,-2.75 z M 318.25,185.81067 c 0.9625,-0.25152 2.5375,-0.25152 3.5,0 0.9625,0.25153 0.175,0.45733 -1.75,0.45733 -1.925,0 -2.7125,-0.2058 -1.75,-0.45733 z M 229.15789,172.5 c 0,-1.375 0.22698,-1.9375 0.50439,-1.25 0.27741,0.6875 0.27741,1.8125 0,2.5 -0.27741,0.6875 -0.50439,0.125 -0.50439,-1.25 z m 47.57544,-33.12409 c 0.67834,-0.68342 1.48524,-0.99067 1.79313,-0.68278 0.30789,0.30789 -0.24711,0.86705 -1.23333,1.24258 -1.4252,0.54268 -1.54006,0.42782 -0.5598,-0.5598 z"
         id="path5" /><path
         style="fill:#000000;fill-opacity:1"
         d="m 323.8125,185.81689 c 0.72187,-0.28887 1.58438,-0.25335 1.91667,0.0789 0.33229,0.33229 -0.25834,0.56864 -1.3125,0.52522 -1.16495,-0.048 -1.4019,-0.28494 -0.60417,-0.60416 z m -7,-4 c 0.72187,-0.28887 1.58438,-0.25335 1.91667,0.0789 0.33229,0.33229 -0.25834,0.56864 -1.3125,0.52522 -1.16495,-0.048 -1.4019,-0.28494 -0.60417,-0.60416 z m 4.9375,0.0208 c 0.6875,-0.27741 1.8125,-0.27741 2.5,0 0.6875,0.27741 0.125,0.50439 -1.25,0.50439 -1.375,0 -1.9375,-0.22698 -1.25,-0.50439 z"
         id="path4" /><path
         style="fill:#000000;fill-opacity:1"
         d="m 267.8125,214.81689 c 0.72187,-0.28887 1.58438,-0.25335 1.91667,0.0789 0.33229,0.33229 -0.25834,0.56864 -1.3125,0.52522 -1.16495,-0.048 -1.4019,-0.28494 -0.60417,-0.60416 z m 13,0 c 0.72187,-0.28887 1.58438,-0.25335 1.91667,0.0789 0.33229,0.33229 -0.25834,0.56864 -1.3125,0.52522 -1.16495,-0.048 -1.4019,-0.28494 -0.60417,-0.60416 z m -6.24821,-63.02376 c -0.54268,-1.4252 -0.42782,-1.54006 0.5598,-0.5598 0.68342,0.67834 0.99067,1.48524 0.68278,1.79313 -0.30789,0.30789 -0.86705,-0.24711 -1.24258,-1.23333 z"
         id="path3" /><path
         style="fill:#000000;fill-opacity:1"
         d="m 272.25,214.78375 c 1.5125,-0.22913 3.9875,-0.22913 5.5,0 1.5125,0.22912 0.275,0.41659 -2.75,0.41659 -3.025,0 -4.2625,-0.18747 -2.75,-0.41659 z m 0.51791,-8.00848 c 1.79735,-0.22256 4.49735,-0.21797 6,0.0102 1.50265,0.22818 0.0321,0.41027 -3.26791,0.40466 -3.3,-0.006 -4.52944,-0.1923 -2.73209,-0.41486 z M 290,190.44098 c 0,-0.58246 0.45,-0.7809 1,-0.44098 0.55,0.33992 1,0.81648 1,1.05902 0,0.24254 -0.45,0.44098 -1,0.44098 -0.55,0 -1,-0.47656 -1,-1.05902 z m -27.1875,-10.62409 c 0.72187,-0.28887 1.58438,-0.25335 1.91667,0.0789 0.33229,0.33229 -0.25834,0.56864 -1.3125,0.52522 -1.16495,-0.048 -1.4019,-0.28494 -0.60417,-0.60416 z M 236,147.12244 c 0,-0.20765 0.7875,-0.99515 1.75,-1.75 1.58606,-1.24387 1.62143,-1.2085 0.37756,0.37756 C 236.82119,147.41575 236,147.94548 236,147.12244 Z"
         id="path2" /><path
         style="fill:#000000;fill-opacity:1"
         d="m 265.05019,233.06047 c -1.60904,-1.93877 -0.94582,-6.61111 1.12215,-7.90551 2.85154,-1.78485 6.82766,0.71254 6.82766,4.28842 0,4.38461 -5.30835,6.79986 -7.94981,3.61709 z M 237,226.5 c -2.47453,-2.47453 -2.48655,-3.17757 -0.10467,-6.11907 1.62925,-2.01203 2.2961,-2.20049 4.75,-1.34238 3.38663,1.18428 4.35587,5.31739 1.83753,7.83573 -2.15993,2.15993 -4.05824,2.05034 -6.48286,-0.37428 z m 71.5,-0.31795 C 295.04065,223.36554 290,218.70728 290,209.08545 v -4.61229 l 3.75,1.57368 c 13.82458,5.80148 42.10114,5.71846 53.46297,-0.15697 L 350,204.44864 v 6.12568 c 0,5.59772 -0.28465,6.41033 -3.30265,9.42833 -1.99257,1.99257 -5.46349,3.95978 -8.75,4.95922 -7.1975,2.18878 -21.90614,2.79825 -29.44735,1.22018 z M 208,220.5 c -2.26853,-2.26853 -2.43543,-3.31787 -0.96482,-6.06574 2.10968,-3.94197 8.96482,-1.64796 8.96482,3 0,1.34783 -3.66966,5.06574 -5,5.06574 -0.55,0 -1.9,-0.9 -3,-2 z m 37.62615,-4.12691 c -2.3755,-2.37206 -2.65773,-3.13011 -1.62756,-4.37139 1.4966,-1.8033 5.13828,-1.96483 6.80141,-0.3017 1.73846,1.73846 1.48701,6.47589 -0.38179,7.19301 -0.86998,0.33385 -1.65748,0.54912 -1.75,0.47838 -0.0925,-0.0707 -1.46144,-1.41997 -3.04206,-2.9983 z M 256,212.95455 c 0,-0.85 -1.10455,-2.65 -2.45455,-4 -3.35235,-3.35236 -8.39966,-3.28955 -12.49384,0.15548 l -3.10184,2.61002 -8.72489,-2.70494 c -11.80088,-3.65858 -16.50943,-6.33584 -15.79824,-8.98281 0.30033,-1.11776 0.5522,-2.82895 0.55971,-3.80262 0.0129,-1.66812 0.23054,-1.65968 3.77041,0.14623 5.50808,2.81001 15.69511,6.02269 24.24324,7.64558 10.45291,1.98451 33.54766,3.71262 39.25,2.93696 l 4.75,-0.64613 v 4.09384 4.09384 h -15 c -12.86275,0 -15,-0.2202 -15,-1.54545 z m 50.5,-7.84553 c -7.33694,-1.2321 -14.62635,-4.25423 -15.26939,-6.33057 -0.24819,-0.80141 1.62473,-0.47538 5.44554,0.94793 5.14255,1.91568 7.87107,2.17307 23.32385,2.2002 15.66342,0.0275 18.12227,-0.20183 23.42933,-2.18526 3.26112,-1.2188 6.13775,-2.00757 6.3925,-1.75283 1.04477,1.04478 -2.26629,3.49648 -6.64879,4.92315 -10.94136,3.56181 -23.91794,4.33935 -36.67304,2.19738 z M 257,201.86067 c -1.375,-0.20184 -5.875,-0.84875 -10,-1.43758 -14.89287,-2.12592 -31.0032,-8.20166 -30.99684,-11.68994 0.007,-3.63427 7.73544,-35.73115 8.59441,-35.69161 0.49634,0.0229 4.79111,1.27269 9.54395,2.77743 13.96457,4.42115 22.68356,5.68103 39.31546,5.68103 18.59812,0 29.36254,-1.66777 48.39165,-7.49747 2.94175,-0.90123 5.50646,-1.48078 5.69935,-1.28789 0.37903,0.37904 5.45202,23.41629 5.45202,24.75851 0,0.44723 -6.8625,1.02196 -15.25,1.27718 -17.22635,0.52417 -24.34203,2.18785 -28.91452,6.76034 C 286.25573,188.09043 286,188.98441 286,195.42308 V 202.5 l -13.25,-0.13618 c -7.2875,-0.0749 -14.375,-0.30132 -15.75,-0.50315 z m 21.36514,-5.43325 c 2.03522,-1.6009 2.63486,-2.95295 2.63486,-5.94098 0,-2.12762 -0.41351,-4.12397 -0.91891,-4.43633 -0.52033,-0.32158 -0.26153,-1.88567 0.59663,-3.60591 4.10966,-8.23799 -6.84557,-17.09469 -13.48916,-10.90524 -1.20371,1.12142 -2.18856,2.52953 -2.18856,3.12912 0,0.75561 -2.49376,0.87264 -8.12593,0.38134 C 247.40526,174.22344 246,173.8056 246,171.81609 246,169.08746 240.3764,164.5 237.03147,164.5 c -6.01127,0 -9.84974,6.73401 -6.93883,12.1731 0.79019,1.47648 0.79019,2.34407 0,3.13426 -2.0724,2.0724 -1.28206,8.59413 1.36191,11.23809 3.47291,3.47292 9.63321,3.42973 12.39941,-0.0869 1.96015,-2.49192 2.17604,-2.52812 11.07258,-1.85652 6.22998,0.4703 9.07346,1.07693 9.07346,1.93572 0,0.68793 1.30554,2.64836 2.90121,4.35652 3.47051,3.71519 7.58311,4.08584 11.46393,1.03318 z m -7.14,-2.59799 c -0.70118,-0.28197 -1.90902,-2.03043 -2.6841,-3.88546 -1.54836,-3.70573 -1.36871,-3.64105 -15.04104,-5.41554 l -9,-1.16808 -2.67834,3.19622 c -2.16473,2.58329 -3.16858,3.07317 -5.23477,2.55459 -3.6241,-0.90959 -4.69359,-5.46438 -1.74307,-7.42346 2.67099,-1.77346 2.68553,-2.5527 0.11258,-6.0328 -2.12289,-2.87136 -1.8648,-5.59234 0.62092,-6.5462 2.39582,-0.91936 4.41913,0.46401 6.42268,4.3913 2.22008,4.35172 2.71273,4.6052 10.59323,5.4505 3.24872,0.34847 7.39754,0.86536 9.2196,1.14864 2.86106,0.44482 3.77848,0.007 6.72744,-3.21283 3.02738,-3.30512 3.68496,-3.60472 5.7984,-2.64177 2.96666,1.3517 3.98275,4.79119 2.00088,6.77305 -0.81532,0.81533 -1.90026,1.48241 -2.41098,1.48241 -1.62517,0 -1.0001,2.62529 1.07143,4.5 4.07583,3.68858 1.2278,8.8412 -3.77486,6.82943 z M 309,197.86057 c -5.30413,-0.7788 -13.11244,-2.73349 -13.51385,-3.38299 -0.61257,-0.99115 5.79829,-2.67594 15.4123,-4.0504 9.27115,-1.32544 25.28662,-0.021 31.38152,2.55605 l 3.22003,1.36147 -3,1.16963 c -6.25219,2.43756 -24.27914,3.70012 -33.5,2.34624 z m -99.75,-6.50776 c -1.64488,-1.64857 -1.58276,-4.01548 0.16824,-6.41011 2.04023,-2.79018 2.86426,-1.27024 1.90841,3.52009 -0.66173,3.31633 -1.07603,3.89289 -2.07665,2.89002 z M 345,189.42747 c -13.8423,-5.32045 -33.81307,-5.03133 -52.25,0.75643 -3.27067,1.02674 -1.76757,-1.63436 2,-3.54081 12.49835,-6.32437 47.52671,-5.01975 53.88579,2.00696 2.35541,2.60269 1.55714,2.77338 -3.63579,0.77742 z M 282.2,156.3 c -1.77501,-1.77501 -1.45585,-5.5927 0.55763,-6.67029 2.00067,-1.07072 6.24237,1.70203 6.24237,4.08058 0,1.86578 -2.03069,3.78971 -4,3.78971 -0.88,0 -2.14,-0.54 -2.8,-1.2 z m -28.53333,-0.46667 c -1.37265,-1.37264 -0.52191,-3.89299 1.91258,-5.66609 2.00111,-1.45746 2.81375,-1.58597 3.96857,-0.62755 1.76348,1.46356 1.88031,4.13218 0.25218,5.76031 -1.29351,1.29351 -5.04679,1.61988 -6.13333,0.53333 z m 14.57165,-0.49501 c -1.84534,-1.84534 -1.4964,-5.62983 0.62369,-6.76447 2.64945,-1.41794 7.08581,3.19475 5.5024,5.72109 -1.33937,2.13698 -4.49503,2.67444 -6.12609,1.04338 z m 28.42835,-0.50499 c -1.11135,-1.11134 -0.75212,-3.10502 0.84772,-4.70486 1.19569,-1.19569 2.14271,-1.29536 4.5,-0.47361 4.06885,1.41841 3.98938,4.39439 -0.13939,5.22014 -3.91953,0.78391 -4.3865,0.78017 -5.20833,-0.0417 z M 241.25,153.48768 c -2.60815,-1.07019 -2.76994,-1.89436 -0.87942,-4.47979 1.32485,-1.81185 1.47298,-1.79321 4.44043,0.55887 1.68843,1.33828 2.94892,2.88324 2.8011,3.43324 -0.36583,1.36116 -3.62459,1.61095 -6.36211,0.48768 z m 68.3975,-2.4639 c -0.35218,-0.91777 -0.16168,-2.56303 0.42334,-3.65615 1.29486,-2.41946 5.70296,-2.20536 7.30582,0.35485 1.36325,2.17747 0.1179,3.52861 -4.014,4.35499 -2.33032,0.46606 -3.22988,0.21093 -3.71516,-1.05369 z m -75.98083,-3.19045 C 233.3,147.46667 233,146.10702 233,144.81189 c 0,-3.05222 4.19334,-5.22625 6.45698,-3.3476 1.32218,1.09732 1.12048,1.628 -1.57614,4.14703 -3.44844,3.22132 -3.29551,3.14068 -4.21417,2.22201 z M 247.2,146.3 c -2.68981,-2.68981 -0.59553,-6.8 3.46482,-6.8 2.96329,0 4.78874,3.284 3.33518,6 -1.18683,2.21761 -4.94075,2.65925 -6.8,0.8 z m 28,0 c -1.70296,-1.70296 -1.49176,-3.22598 0.7256,-5.23267 2.27995,-2.06333 4.92798,-1.76661 6.46722,0.72466 0.90558,1.4657 0.65197,2.14446 -1.39282,3.72777 -2.9205,2.26136 -4.15307,2.42717 -5.8,0.78024 z m 13,0 c -0.66,-0.66 -1.2,-2.05814 -1.2,-3.10699 0,-1.43462 0.43348,-1.7216 1.75,-1.15857 0.9625,0.41163 2.9875,0.96085 4.5,1.22049 3.01488,0.51754 3.37333,1.22174 1.55,3.04507 -1.5425,1.5425 -5.0575,1.5425 -6.6,0 z m -27.1302,-2.2159 c -0.93753,-1.12966 -0.76776,-1.54519 0.83978,-2.0554 2.70619,-0.85891 6.93732,1.32104 4.97552,2.56347 -2.05793,1.30332 -4.4882,1.09099 -5.8153,-0.50807 z M 301.2,144.3 c -1.70296,-1.70296 -1.49176,-3.22598 0.7256,-5.23267 3.89064,-3.52098 9.10462,0.53182 5.62737,4.37413 -2.09416,2.31403 -4.56374,2.64777 -6.35297,0.85854 z m -33.46949,-5.40282 c -0.33155,-0.33156 -0.19418,-1.67765 0.30528,-2.99132 0.49946,-1.31367 0.64758,-3.0674 0.32917,-3.89718 -0.71166,-1.85454 2.65486,-2.08886 4.43504,-0.30868 1.5425,1.5425 1.5425,5.0575 0,6.6 -1.27374,1.27374 -4.06421,1.60245 -5.06949,0.59718 z m 23.31517,-0.84214 c -2.80698,-3.3822 1.07622,-9.22949 4.63749,-6.98309 3.26152,2.05731 3.87648,4.15217 1.8698,6.36951 -2.17778,2.40642 -4.81313,2.65491 -6.50729,0.61358 z m -34.33162,-1.17431 C 256.32133,136.48799 256,134.90024 256,133.35239 c 0,-2.17179 0.57371,-2.95828 2.51299,-3.44501 3.28387,-0.82419 5.67078,1.21036 5.28757,4.50702 -0.24016,2.06599 -0.91068,2.64537 -3.3365,2.88299 -1.66977,0.16357 -3.35727,-0.0239 -3.75,-0.41666 z m 21.62781,-3.98172 c -1.88874,-2.88259 -0.97792,-5.6334 2.06335,-6.23159 3.73963,-0.73555 6.2096,4.81776 3.39478,7.63258 -1.87265,1.87265 -3.60441,1.42815 -5.45813,-1.40099 z"
         id="path1" /></g></g></svg>
